<svg width="32" height="32" viewBox="0 0 32 32" fill="none" xmlns="http://www.w3.org/2000/svg">
<circle cx="16" cy="16.0001" r="16" fill="#C35C6C"/>
<path fillRule="evenodd" clipRule="evenodd" d="M24.213 16.3028C24.098 16.5785 24.0173 16.8763 23.8574 17.1228C23.7223 17.331 23.5001 17.4852 23.3058 17.651C23.2394 17.7078 23.206 17.7457 23.219 17.8407C23.3451 18.7535 23.1187 19.5845 22.6084 20.3414C21.9087 21.3791 20.9246 22.0653 19.797 22.5549C18.0683 23.3052 16.258 23.523 14.3904 23.3363C13.1183 23.2094 11.9039 22.883 10.7737 22.2798C9.72184 21.7184 8.82764 20.9803 8.27384 19.8958C7.9363 19.2349 7.80909 18.5344 7.92534 17.7946C7.93301 17.7462 7.90977 17.6663 7.87336 17.6418C7.4029 17.3226 7.12151 16.8846 7.02149 16.3271C7.01996 16.3181 7.00746 16.3109 7 16.303C7 16.1348 7 15.9668 7 15.7988C7.02544 15.7027 7.04913 15.606 7.07632 15.5103C7.44194 14.231 8.98622 13.7215 10.0396 14.5376C10.155 14.6271 10.2322 14.6346 10.3585 14.5569C11.5574 13.82 12.8714 13.4261 14.2628 13.2741C14.574 13.2401 14.8874 13.216 15.2002 13.2083C15.3691 13.2041 15.4506 13.1552 15.5033 12.9833C15.8533 11.845 16.2165 10.7106 16.5758 9.57492C16.6743 9.26304 16.7545 9.21742 17.0664 9.29133C18.0299 9.51943 18.9932 9.74687 19.9567 9.9741C19.978 9.97914 20.0003 9.97936 19.9828 9.97739C20.1701 9.75499 20.3175 9.52535 20.516 9.35494C21.0233 8.91892 21.7194 8.88865 22.3156 9.24264C22.8314 9.54882 23.1192 10.1961 23.0172 10.82C22.9148 11.4449 22.4112 11.9608 21.7815 12.0853C20.8869 12.2628 20.005 11.5967 19.9449 10.6913C19.9361 10.5575 19.8946 10.5025 19.7584 10.4715C18.8642 10.2682 17.9727 10.0537 17.0526 9.83614C16.6986 10.9547 16.3459 12.0691 15.9937 13.1826C16.4668 13.2359 16.9188 13.2701 17.3654 13.3401C18.6043 13.534 19.7784 13.9187 20.8452 14.5927C20.9619 14.6664 21.031 14.653 21.1345 14.5692C22.2596 13.6594 23.9239 14.2832 24.1809 15.7064C24.1866 15.738 24.202 15.7678 24.2127 15.7985C24.213 15.9663 24.213 16.1345 24.213 16.3028ZM15.2877 13.718C14.2073 13.716 12.9082 13.9551 11.6315 14.4856C10.6141 14.9081 9.72425 15.5099 9.05552 16.4113C8.21989 17.5378 8.21484 19.0351 9.04499 20.1664C9.59507 20.9163 10.3099 21.4589 11.1277 21.8754C12.3024 22.474 13.5616 22.7689 14.8692 22.8475C16.4648 22.9431 18.0214 22.7387 19.5031 22.1123C20.5228 21.6813 21.4214 21.083 22.091 20.1743C22.9286 19.0371 22.9251 17.5398 22.0813 16.4052C21.5339 15.6689 20.8294 15.1313 20.0205 14.7212C18.6241 14.0132 17.1285 13.7369 15.2877 13.718ZM22.5057 10.5586C22.5068 9.99121 22.0504 9.53479 21.4837 9.53676C20.9237 9.53895 20.4732 9.98485 20.4634 10.5465C20.4535 11.1043 20.9141 11.5717 21.4802 11.5785C22.041 11.5855 22.5044 11.1247 22.5057 10.5586ZM21.4418 15.0063C22.1763 15.5908 22.7485 16.2854 23.0674 17.17C23.7324 16.725 23.8719 15.8181 23.3872 15.2072C22.8996 14.5931 21.9881 14.4911 21.4418 15.0063ZM9.74465 14.9695C9.3117 14.6495 8.8566 14.5832 8.38483 14.7811C7.8659 14.9986 7.57902 15.4094 7.54217 15.9738C7.51125 16.4477 7.70557 16.8259 8.08851 17.1388C8.42145 16.2365 9.00903 15.554 9.74465 14.9695Z" fill="white"/>
<path fillRule="evenodd" clipRule="evenodd" d="M11.8652 17.3535C11.8632 16.7304 12.3668 16.2233 12.9912 16.2191C13.6086 16.215 14.1245 16.7273 14.1269 17.3474C14.1293 17.9643 13.6152 18.4822 12.9978 18.485C12.3804 18.4879 11.8672 17.9751 11.8652 17.3535Z" fill="white"/>
<path fillRule="evenodd" clipRule="evenodd" d="M19.3516 17.3884C19.315 18.0234 18.7882 18.5175 18.185 18.4831C17.5542 18.4471 17.0562 17.9141 17.0908 17.3123C17.1272 16.6778 17.6547 16.1865 18.2616 16.222C18.9 16.2593 19.3867 16.78 19.3516 17.3884Z" fill="white"/>
<path fillRule="evenodd" clipRule="evenodd" d="M15.5376 21.5585C14.9708 21.5566 14.3291 21.5219 13.7354 21.2611C13.4333 21.1286 13.1592 20.9258 12.8868 20.7339C12.7455 20.6345 12.7466 20.4641 12.8493 20.3498C12.9464 20.2417 13.1026 20.2237 13.225 20.336C13.6941 20.7679 14.2685 20.9308 14.88 20.9898C15.5738 21.0567 16.2664 21.0539 16.9492 20.8802C17.3178 20.7861 17.6521 20.6292 17.9414 20.3761C18.0072 20.3187 18.1138 20.2641 18.1912 20.2761C18.2739 20.2891 18.3877 20.37 18.4077 20.4433C18.4305 20.5262 18.3932 20.6604 18.332 20.7255C18.0949 20.9775 17.7973 21.1462 17.4755 21.2706C16.8757 21.5028 16.2475 21.5568 15.5376 21.5585Z" fill="white"/>
</svg>
