<svg width="32" height="32" viewBox="0 0 32 32" fill="none" xmlns="http://www.w3.org/2000/svg">
<circle cx="16" cy="16" r="16" fill="#C35C6C"/>
<path fillRule="evenodd" clipRule="evenodd" d="M8.65043 15.2594C8.74205 14.9566 8.96255 14.8043 9.24873 14.6943C13.6173 13.0141 17.9847 11.331 22.3484 9.63832C22.8409 9.4473 23.2859 9.61014 23.4146 10.1265C23.4146 10.2034 23.4146 10.2803 23.4146 10.3571C23.3277 10.7544 23.2374 11.151 23.1545 11.5491C22.6018 14.2029 22.0506 16.8569 21.499 19.511C21.339 20.2813 21.1779 21.0514 21.0196 21.8221C20.9305 22.2557 20.6581 22.5062 20.2736 22.462C20.1298 22.4455 19.9786 22.3728 19.8586 22.2868C18.8243 21.5452 17.7964 20.7948 16.7666 20.0469C16.5188 19.867 16.4658 19.869 16.2276 20.0632C15.6729 20.5155 15.1195 20.9695 14.5623 21.4186C14.2118 21.7012 13.7781 21.6555 13.5407 21.31C13.4797 21.2212 13.4417 21.1131 13.4091 21.0089C13.0249 19.7824 12.6426 18.5553 12.2641 17.327C12.2356 17.2342 12.1911 17.1866 12.1004 17.1531C11.1511 16.8026 10.2057 16.4417 9.25439 16.0966C8.95978 15.9897 8.73639 15.8322 8.65039 15.5188C8.65043 15.4324 8.65043 15.3459 8.65043 15.2594ZM22.8153 10.2851C22.8257 10.1361 22.7755 10.1108 22.6175 10.1717C18.2093 11.8718 13.8011 13.572 9.39387 15.2748C9.33743 15.2966 9.29371 15.3513 9.24404 15.3906C9.29551 15.4331 9.34038 15.4929 9.39949 15.5152C10.4182 15.8997 11.4375 16.2824 12.4596 16.6578C12.6293 16.7201 12.7244 16.8188 12.7777 16.9922C13.1732 18.2807 13.5761 19.5669 13.977 20.8536C14.0375 21.0476 14.074 21.0591 14.2291 20.9329C14.7804 20.4839 15.3308 20.0338 15.8823 19.585C16.2988 19.2461 16.6513 19.2369 17.0843 19.5512C18.1222 20.3045 19.16 21.0579 20.1981 21.8109C20.3543 21.9242 20.4003 21.9081 20.4381 21.7259C20.6238 20.8333 20.8079 19.9404 20.9934 19.0479C21.5168 16.5298 22.0405 14.0119 22.5641 11.4939C22.6491 11.0852 22.734 10.6765 22.8153 10.2851Z" fill="white"/>
<path fillRule="evenodd" clipRule="evenodd" d="M13.2591 16.6896C13.2686 16.3072 13.4278 16.0441 13.7229 15.8611C14.0858 15.6359 14.45 15.4128 14.8137 15.1888C16.4319 14.1924 18.0502 13.1961 19.6681 12.1992C19.8068 12.1138 19.9458 12.0478 20.1138 12.1164C20.3542 12.2144 20.4417 12.5041 20.2884 12.7128C20.2518 12.7627 20.2067 12.8072 20.1613 12.8495C18.5717 14.3282 16.9855 15.8105 15.3881 17.2807C15.1301 17.5181 14.9936 17.7825 14.963 18.1263C14.9325 18.47 14.8834 18.8132 14.8214 19.1527C14.7612 19.4824 14.4174 19.6413 14.1541 19.4607C14.0596 19.3959 13.9755 19.278 13.9425 19.1676C13.7185 18.419 13.5085 17.6661 13.2968 16.9138C13.2736 16.8315 13.268 16.7443 13.2591 16.6896ZM14.3088 18.3273C14.3207 18.327 14.3326 18.3266 14.3445 18.3262C14.3595 18.2189 14.3792 18.112 14.3888 18.0042C14.4258 17.5918 14.5742 17.237 14.885 16.9498C16.0039 15.916 17.1181 14.8771 18.2341 13.84C18.266 13.8104 18.2971 13.7797 18.3286 13.7496C18.2678 13.7562 18.2229 13.7809 18.1794 13.8077C17.2594 14.374 16.3395 14.9405 15.4196 15.507C14.9658 15.7865 14.5116 16.0655 14.0585 16.346C13.8787 16.4574 13.8165 16.5673 13.8622 16.7355C14.0068 17.2673 14.1593 17.7969 14.3088 18.3273Z" fill="white"/>
<path fillRule="evenodd" clipRule="evenodd" d="M19.6605 20.5832C19.7177 20.3167 19.7835 20.0074 19.8505 19.6983C20.0008 19.005 20.1514 18.3117 20.3027 17.6187C20.3159 17.558 20.3303 17.4968 20.3531 17.4394C20.408 17.3009 20.538 17.2275 20.6726 17.2528C20.8138 17.2794 20.9252 17.4028 20.9039 17.5531C20.8699 17.7944 20.8138 18.0329 20.7623 18.2716C20.5914 19.0635 20.4184 19.8549 20.246 20.6464C20.2389 20.679 20.2315 20.712 20.2198 20.7432C20.1641 20.8911 20.038 20.9672 19.8939 20.9416C19.7467 20.9154 19.6536 20.791 19.6605 20.5832Z" fill="white"/>
<path fillRule="evenodd" clipRule="evenodd" d="M21.1988 16.2631C21.1862 16.3119 21.1701 16.4122 21.1344 16.5049C21.0823 16.64 20.9445 16.7048 20.8064 16.6737C20.6741 16.6439 20.5804 16.5345 20.5873 16.3934C20.5922 16.2944 20.611 16.1933 20.6417 16.099C20.6901 15.9501 20.8271 15.8721 20.9655 15.8981C21.1132 15.9259 21.2053 16.0491 21.1988 16.2631Z" fill="white"/>
</svg>
