<svg width="1440" height="800" viewBox="0 0 1440 800" fill="none" xmlns="http://www.w3.org/2000/svg">
<mask id="mask0_5:637" style="mask-type:alpha" maskUnits="userSpaceOnUse" x="0" y="0" width="1440" height="800">
<rect width="1440" height="800" fill="#C4C4C4"/>
</mask>
<g mask="url(#mask0_5:637)">
<g style="mix-blend-mode:lighten" filter="url(#filter0_f_5:637)">
<path d="M1423 978.401C1423 1137.46 858.058 1266.4 699 1266.4C539.942 1266.4 19 1137.46 19 978.401C19 819.343 316.5 832.401 699 690.401C1257 463.901 1423 819.343 1423 978.401Z" fill="#7CCBCB"/>
</g>
<g style="mix-blend-mode:lighten" opacity="0.5" filter="url(#filter1_f_5:637)">
<path d="M1423 867.401C1423 1026.46 858.058 1155.4 699 1155.4C539.942 1155.4 19 1026.46 19 867.401C19 708.343 316.5 721.401 699 579.401C1257 352.901 1423 708.343 1423 867.401Z" fill="#7CCBCB"/>
</g>
<g style="mix-blend-mode:lighten" opacity="0.25" filter="url(#filter2_f_5:637)">
<path d="M1485 754.178C1485 913.138 870.163 1042 697.057 1042C523.951 1042 -43 913.138 -43 754.178C-43 595.218 280.775 608.268 697.057 466.355C1304.34 239.995 1485 595.218 1485 754.178Z" fill="#7CCBCB"/>
</g>
<g style="mix-blend-mode:lighten" opacity="0.05" filter="url(#filter3_f_5:637)">
<path d="M1743 654.178C1743 813.138 920.535 942 688.971 942C457.408 942 -301 813.138 -301 654.178C-301 495.218 132.113 508.268 688.971 366.355C1501.33 139.995 1743 495.218 1743 654.178Z" fill="#7CCBCB"/>
</g>
</g>
<defs>
<filter id="filter0_f_5:637" x="-81" y="517" width="1604" height="849.401" filterUnits="userSpaceOnUse" color-interpolation-filters="sRGB">
<feFlood flood-opacity="0" result="BackgroundImageFix"/>
<feBlend mode="normal" in="SourceGraphic" in2="BackgroundImageFix" result="shape"/>
<feGaussianBlur stdDeviation="50" result="effect1_foregroundBlur_5:637"/>
</filter>
<filter id="filter1_f_5:637" x="-81" y="406" width="1604" height="849.401" filterUnits="userSpaceOnUse" color-interpolation-filters="sRGB">
<feFlood flood-opacity="0" result="BackgroundImageFix"/>
<feBlend mode="normal" in="SourceGraphic" in2="BackgroundImageFix" result="shape"/>
<feGaussianBlur stdDeviation="50" result="effect1_foregroundBlur_5:637"/>
</filter>
<filter id="filter2_f_5:637" x="-143" y="293" width="1728" height="849" filterUnits="userSpaceOnUse" color-interpolation-filters="sRGB">
<feFlood flood-opacity="0" result="BackgroundImageFix"/>
<feBlend mode="normal" in="SourceGraphic" in2="BackgroundImageFix" result="shape"/>
<feGaussianBlur stdDeviation="50" result="effect1_foregroundBlur_5:637"/>
</filter>
<filter id="filter3_f_5:637" x="-401" y="193" width="2244" height="849" filterUnits="userSpaceOnUse" color-interpolation-filters="sRGB">
<feFlood flood-opacity="0" result="BackgroundImageFix"/>
<feBlend mode="normal" in="SourceGraphic" in2="BackgroundImageFix" result="shape"/>
<feGaussianBlur stdDeviation="50" result="effect1_foregroundBlur_5:637"/>
</filter>
</defs>
</svg>
