<svg width="163" height="48" viewBox="0 0 163 48" fill="none" xmlns="http://www.w3.org/2000/svg">
<g clip-path="url(#clip0_5:610)">
<path fillRule="evenodd" clipRule="evenodd" d="M11.427 4.60607C11.4101 4.6584 11.3627 4.76808 11.3217 4.84999L11.247 4.99872L11.321 5.11607C11.3616 5.18061 14.1416 9.44167 17.4986 14.585C20.8556 19.7284 23.6027 23.954 23.6033 23.9752C23.604 23.9964 23.5206 24.1421 23.418 24.2992C23.3154 24.4562 23.2396 24.5928 23.2496 24.6028C23.2596 24.6127 23.5822 24.6249 23.9664 24.63L24.6651 24.6389L24.4832 24.3684C24.304 24.1019 24.302 24.0969 24.3434 24.0337C24.4223 23.9135 36.4599 5.81754 36.6856 5.47986L36.9104 5.14349L36.8404 4.99728C36.8019 4.91693 36.7502 4.77742 36.7254 4.6875L36.6806 4.5238L24.0693 4.51745L11.458 4.51111L11.427 4.60607ZM32.9559 7.43185C31.2039 10.0763 24.0665 20.799 24.0392 20.8277C24.0123 20.8558 14.6794 6.61996 14.6794 6.55087C14.6794 6.54405 18.9248 6.53854 24.1136 6.53854H33.5477L32.9559 7.43185ZM22.7966 25.2534L22.6826 25.4319L22.8398 25.4545C23.0288 25.4816 25.1562 25.4905 25.1825 25.4641C25.1927 25.4541 25.1547 25.3753 25.0979 25.2892L24.9948 25.1327L24.0975 25.126C23.6039 25.1224 23.135 25.1093 23.0553 25.097L22.9107 25.0747L22.7966 25.2534ZM22.0252 26.4393C21.9995 26.4713 11.3822 42.742 11.2448 42.96L11.1708 43.0774L11.2455 43.2261C11.2865 43.3079 11.3339 43.4176 11.351 43.4699L11.3818 43.565L23.9921 43.5587L36.6026 43.5523L36.6584 43.3622C36.6891 43.2576 36.7401 43.1225 36.7716 43.062C36.8032 43.0014 36.8238 42.9386 36.8176 42.9226C36.8006 42.8789 25.9059 26.5018 25.8671 26.4617C25.8388 26.4325 25.7712 26.4325 25.4312 26.4617C24.8468 26.5119 23.1339 26.5048 22.5536 26.4498C22.0236 26.3993 22.0568 26.4001 22.0252 26.4393ZM28.7246 34.3961L33.4661 41.5248L24.0431 41.5312C18.8606 41.5347 14.6157 41.533 14.6102 41.5275C14.6046 41.522 16.6995 38.2995 19.2654 34.3664C22.4682 29.457 23.9388 27.2234 23.9568 27.2414C23.9712 27.2558 26.1167 30.4754 28.7246 34.3961Z" fill="#440C54"/>
<path fillRule="evenodd" clipRule="evenodd" d="M22.5778 0.205872C8.99903 1.04314 -1.13004 12.8165 0.0898752 26.3443C1.0662 37.171 9.32963 46.0342 20.0888 47.7947C21.3401 47.9995 21.0929 47.9874 24.0127 47.9874C26.9324 47.9874 26.6854 47.9995 27.9365 47.7947C38.386 46.0848 46.5266 37.656 47.8456 27.1806C47.9828 26.0904 47.9873 25.9957 47.9873 24.1394C47.9873 22.1464 47.9582 21.7102 47.732 20.3039C45.7825 8.18758 34.8461 -0.550567 22.5778 0.205872ZM36.7478 4.67589C36.771 4.75947 36.8207 4.89467 36.8582 4.97634C36.8959 5.058 36.919 5.13775 36.9096 5.15368C36.9002 5.16961 34.2758 9.11729 31.0777 13.9261C27.8795 18.735 25.2449 22.6968 25.2229 22.7302L25.183 22.7909L25.309 22.7729C25.4777 22.7489 25.722 22.6334 25.8517 22.5165L25.9574 22.4211L26.0995 22.4529C27.4776 22.7606 28.1677 23.547 27.6019 24.1648C27.208 24.5949 26.2229 24.9781 25.2571 25.0769C24.9646 25.1068 24.9755 25.0928 25.0986 25.2797C25.2258 25.473 25.1981 25.468 25.7976 25.4057C28.1422 25.1621 30.2646 24.3747 30.5006 23.6606C30.6989 23.0612 28.8245 22.1796 26.6239 21.8372L26.2476 21.7787L26.4629 21.7467C26.9359 21.6763 27.3103 21.5017 27.6227 21.2055L27.8129 21.0252L28.1096 21.0969C29.8577 21.5187 31.1576 22.3105 31.4617 23.1384C31.9864 24.5665 29.8313 25.9298 26.3548 26.3691C26.1064 26.4004 25.8979 26.4313 25.8916 26.4377C25.8852 26.444 28.1669 29.8868 30.9618 34.0884C33.7567 38.2899 36.2252 42.0024 36.4475 42.3383L36.8515 42.949L36.7826 43.0986C36.7447 43.1809 36.6948 43.3165 36.6718 43.4002L36.6298 43.5523L23.993 43.5587L11.3563 43.565L11.3255 43.4699C11.3084 43.4176 11.2622 43.3103 11.2226 43.2313L11.1506 43.0877L11.477 42.585C11.6567 42.3086 14.102 38.5594 16.9114 34.2535C19.7207 29.9476 22.0135 26.419 22.0066 26.412C21.9997 26.4052 21.8369 26.3789 21.6449 26.3535C15.8178 25.5841 14.7862 22.4601 19.918 21.1242L20.3438 21.0133L20.4103 21.1444C20.5404 21.4016 20.7978 21.6983 21.0037 21.8284C21.1085 21.8945 21.095 21.9016 20.7112 21.9825C19.3798 22.2628 18.3144 22.7209 17.8124 23.2287C17.5436 23.5006 17.5436 23.6378 17.8124 23.9097C18.5519 24.6578 20.1636 25.1739 22.5594 25.4296C22.6517 25.4396 22.659 25.4343 22.7568 25.2907C22.894 25.0891 22.9018 25.0645 22.8281 25.0642C22.7134 25.0638 22.0195 24.9123 21.7768 24.8347C19.8448 24.2172 19.9159 23.0423 21.9185 22.4945C22.2293 22.4095 22.2371 22.4101 22.2966 22.5266C22.3242 22.5805 22.404 22.676 22.474 22.7387L22.6013 22.8529L22.3038 22.9228C21.5438 23.1014 20.8762 23.4559 20.8762 23.6807C20.8762 23.9987 21.8633 24.4175 22.9639 24.5668L23.2105 24.6002L23.4121 24.2897L23.6137 23.9792L17.7305 14.961C14.4947 10.0011 11.7076 5.72834 11.5369 5.46586L11.2266 4.98867L11.2987 4.84497C11.3383 4.76594 11.3846 4.65841 11.4017 4.60608L11.4325 4.51112L24.0692 4.51747L36.706 4.52381L36.7478 4.67589ZM14.7197 6.60824C14.8049 6.73673 23.7594 20.4621 23.8876 20.6606L24.0142 20.8565L28.7626 13.7192C31.3742 9.79362 33.5149 6.57208 33.5196 6.56022C33.5243 6.54825 29.2934 6.53855 24.1008 6.53855H14.6735L14.7197 6.60824ZM32.2844 7.36851C32.147 7.57412 30.2311 10.4543 28.0267 13.7688L24.0187 19.7953L23.8996 19.6104C23.834 19.5088 22.0279 16.7399 19.8859 13.4573C17.7439 10.1747 15.9192 7.37773 15.831 7.24182L15.6707 6.99478H24.1024H32.5342L32.2844 7.36851ZM18.036 8.28302C18.057 8.3357 24.0145 17.459 24.0286 17.4602C24.0373 17.4609 24.2999 17.0766 24.6119 16.6061C24.9239 16.1358 26.2968 14.0705 27.6626 12.0168C29.0285 9.96306 30.146 8.27811 30.146 8.27236C30.146 8.26661 27.4194 8.26194 24.0868 8.26194C20.7541 8.26194 18.0313 8.2714 18.036 8.28302ZM29.7161 8.53436C29.6216 8.69913 24.0083 17.0403 23.9909 17.0416C23.9716 17.0432 18.4634 8.53436 18.4634 8.50287C18.4634 8.49581 21.0011 8.48994 24.1025 8.48994C29.4658 8.48994 29.7402 8.49221 29.7161 8.53436ZM24.7481 23.4419C24.5183 23.7901 24.3301 24.0823 24.3301 24.0914C24.3301 24.1003 24.4016 24.2202 24.4889 24.3578L24.6476 24.6077L24.7746 24.6075C25.7197 24.6057 27.3022 24.0397 27.3014 23.7039C27.3008 23.3912 25.9507 22.8089 25.2262 22.8089C25.1756 22.8089 25.0991 22.9102 24.7481 23.4419ZM19.2722 34.3726L14.608 41.5248L24.0193 41.5312C29.1955 41.5347 33.4349 41.5333 33.4402 41.5281C33.4469 41.5213 24.2233 27.6332 23.9668 27.2638C23.9408 27.2266 23.268 28.2454 19.2722 34.3726ZM28.2307 34.6647L32.4742 41.0433L28.2625 41.0497C25.946 41.0532 22.1555 41.0532 19.8389 41.0497L15.627 41.0433L19.7945 34.6537C22.0866 31.1394 23.9676 28.2691 23.9746 28.2752C23.9816 28.2812 25.8968 31.1565 28.2307 34.6647ZM23.2662 31.6601C23.1941 31.775 23.1673 31.8309 23.2068 31.7845C23.278 31.7005 23.4287 31.451 23.4082 31.451C23.4023 31.451 23.3384 31.545 23.2662 31.6601ZM22.0734 33.4906C21.797 33.9022 17.9809 39.7607 17.9809 39.7734C17.9809 39.7819 20.7067 39.7888 24.038 39.7888C27.3695 39.7888 30.0953 39.7816 30.0953 39.7728C30.0953 39.7435 25.8683 33.4062 25.8546 33.4149C25.8473 33.4196 25.447 34.0399 24.965 34.7932C24.4831 35.5467 24.0815 36.1635 24.0725 36.1638C24.0634 36.1643 23.6291 35.5345 23.1073 34.7641L22.1587 33.3636L22.0734 33.4906Z" fill="#BBABE3"/>
<path fillRule="evenodd" clipRule="evenodd" d="M19.8857 21.1365C15.4216 22.3249 15.5218 24.9114 20.0762 26.0494C24.8465 27.2414 31.1515 25.9765 31.5225 23.753C31.6958 22.7146 30.39 21.6864 28.1816 21.1224L27.8083 21.0271L27.7196 21.1306C27.4614 21.4317 27.0469 21.6473 26.5397 21.7443C26.4069 21.7697 26.327 21.7916 26.3619 21.7929C27.2755 21.828 29.1705 22.418 29.9055 22.896C30.7016 23.4138 30.7016 23.7248 29.9055 24.2425C27.552 25.7734 21.6871 25.9255 18.75 24.5317C18.0864 24.2169 17.6 23.8098 17.6 23.5692C17.6 23.0837 19.0105 22.3477 20.6095 21.9986C20.8051 21.9559 20.9915 21.9151 21.0237 21.908C21.0769 21.8961 21.0685 21.8845 20.9349 21.7859C20.7135 21.6227 20.5282 21.4012 20.3966 21.1427C20.3305 21.0127 20.35 21.013 19.8857 21.1365ZM21.9318 22.4946C18.988 23.3003 20.493 25.1404 24.096 25.1405C27.6933 25.1406 29.1805 23.2822 26.2166 22.4903L25.9571 22.421L25.8445 22.5244C25.706 22.6518 25.5672 22.7243 25.3802 22.7667L25.2371 22.7991L25.4503 22.8314C26.3696 22.9711 27.3015 23.4029 27.3015 23.6891C27.3015 23.8632 26.8333 24.1645 26.2908 24.3394C24.5924 24.8874 21.7998 24.647 21.0095 23.885C20.8331 23.7149 20.8316 23.6535 20.9999 23.4916C21.2333 23.2672 21.6533 23.0781 22.2402 22.9335L22.5757 22.8508L22.4561 22.7333C22.3903 22.6685 22.3139 22.5735 22.2863 22.5221C22.2278 22.4134 22.2283 22.4135 21.9318 22.4946Z" fill="#C35C6C"/>
<path fillRule="evenodd" clipRule="evenodd" d="M18.4634 8.50292C18.4634 8.53442 23.9715 17.0432 23.9909 17.0417C24.0083 17.0404 29.6216 8.69919 29.7161 8.53442C29.7402 8.49226 29.4657 8.48999 24.1025 8.48999C21.0011 8.48999 18.4634 8.49586 18.4634 8.50292ZM23.7431 30.9259C23.6133 31.1241 23.4566 31.3775 23.3949 31.489C23.3331 31.6005 23.2286 31.7602 23.1626 31.8438C23.0231 32.0208 22.1714 33.3215 22.1714 33.3578C22.1714 33.3901 24.0513 36.1651 24.0725 36.1639C24.0875 36.1632 25.8315 33.4534 25.8488 33.4042C25.8529 33.3924 25.4339 32.7487 24.9176 31.9741L23.9789 30.5656L23.7431 30.9259Z" fill="#7CCBCB"/>
<path fillRule="evenodd" clipRule="evenodd" d="M11.4021 4.60436C11.3849 4.65765 11.3379 4.76674 11.2977 4.84685C11.2575 4.92708 11.2303 4.99258 11.2373 4.99258C11.271 4.99258 11.4675 4.54149 11.444 4.51814C11.4383 4.51239 11.4194 4.55119 11.4021 4.60436ZM36.7143 4.65322C36.7524 4.80146 36.9012 5.15352 36.9183 5.13627C36.9234 5.13137 36.8935 5.05281 36.8521 4.96168C36.8107 4.87056 36.7634 4.74039 36.7469 4.6725C36.7304 4.6046 36.7076 4.53886 36.6965 4.52652C36.6852 4.51407 36.6932 4.57107 36.7143 4.65322ZM15.831 7.24178C15.9192 7.37769 17.7439 10.1746 19.8859 13.4572C22.0279 16.7398 23.834 19.5087 23.8995 19.6104L24.0187 19.7953L28.0267 13.7688C30.2311 10.4542 32.147 7.57408 32.2844 7.36847L32.5341 6.99474H24.1023H15.6707L15.831 7.24178ZM30.146 8.27232C30.146 8.27807 29.0285 9.96302 27.6626 12.0168C26.2968 14.0704 24.9239 16.1357 24.6119 16.6061C24.2999 17.0766 24.0373 17.4608 24.0285 17.4601C24.0145 17.4589 18.057 8.33566 18.036 8.28297C18.0313 8.27136 20.7541 8.2619 24.0867 8.2619C27.4194 8.2619 30.146 8.26657 30.146 8.27232ZM27.6432 21.1932L27.5429 21.301L27.6507 21.2008C27.7512 21.1076 27.7704 21.0856 27.7512 21.0856C27.747 21.0856 27.6985 21.1339 27.6432 21.1932ZM20.7237 21.6004C20.7237 21.6047 20.7609 21.6418 20.8063 21.6827L20.8889 21.7571L20.8142 21.6747C20.7447 21.598 20.7237 21.5807 20.7237 21.6004ZM17.0906 22.4984L17.0031 22.5934L17.0984 22.5061C17.187 22.4248 17.2053 22.4034 17.1859 22.4034C17.1817 22.4034 17.1389 22.4461 17.0906 22.4984ZM31.0095 22.4921C31.0569 22.5408 31.1013 22.5807 31.1083 22.5807C31.1154 22.5807 31.0823 22.5408 31.0349 22.4921C30.9875 22.4432 30.9431 22.4034 30.9361 22.4034C30.929 22.4034 30.9621 22.4432 31.0095 22.4921ZM17.0921 24.6462C17.1395 24.6951 17.1839 24.735 17.1909 24.735C17.1979 24.735 17.1648 24.6951 17.1175 24.6462C17.0701 24.5975 17.0256 24.5575 17.0186 24.5575C17.0117 24.5575 17.0447 24.5975 17.0921 24.6462ZM30.9956 24.6653L30.8952 24.7729L31.0032 24.6728C31.1035 24.5796 31.1228 24.5575 31.1035 24.5575C31.0994 24.5575 31.0508 24.606 30.9956 24.6653ZM19.7945 34.6537L15.627 41.0432L19.8389 41.0497C22.1555 41.0532 25.946 41.0532 28.2625 41.0497L32.4741 41.0432L28.2307 34.6647C25.8968 31.1565 23.9816 28.2811 23.9745 28.2751C23.9676 28.269 22.0866 31.1394 19.7945 34.6537ZM27.7239 36.1935C29.0281 38.1539 30.0953 39.7647 30.0953 39.7733C30.0953 39.7818 27.3695 39.7888 24.038 39.7888C20.7067 39.7888 17.9809 39.7818 17.9809 39.7733C17.9809 39.7609 21.0116 35.1043 21.9049 33.7444C22.0331 33.5493 22.5522 32.754 23.0586 31.9771L23.9792 30.5646L24.6659 31.5969C25.0436 32.1648 26.4197 34.2333 27.7239 36.1935ZM36.7548 43.102C36.6774 43.2715 36.5805 43.5934 36.6203 43.5495C36.6314 43.5371 36.6542 43.4713 36.6707 43.4034C36.6872 43.3356 36.7345 43.2055 36.7759 43.1144C36.8173 43.0233 36.8472 42.9447 36.8423 42.9397C36.8372 42.9348 36.798 43.0078 36.7548 43.102ZM11.2358 43.2672C11.2821 43.3682 11.333 43.4794 11.349 43.5142L11.378 43.5776L11.3631 43.5142C11.3449 43.4365 11.1819 43.0834 11.1644 43.0834C11.1575 43.0834 11.1895 43.1661 11.2358 43.2672Z" fill="#9C5CAC"/>
</g>
<path d="M79.52 14.428V18.32H69.776V22.352H78.54V26.076H69.776V30.136H79.828V34H65.408V14.428H79.52Z" fill="white"/>
<path d="M88.1016 21.96V28.708C88.1016 29.2867 88.2509 29.744 88.5496 30.08C88.8482 30.3973 89.2029 30.556 89.6136 30.556C90.3976 30.556 91.0602 30.2013 91.6016 29.492L93.1696 32.432C91.8629 33.6267 90.4816 34.224 89.0256 34.224C87.5882 34.224 86.3656 33.748 85.3576 32.796C84.3682 31.844 83.8736 30.5467 83.8736 28.904V21.96H82.1096V18.936H83.8736V14.428H88.1016V18.936H91.7416V21.96H88.1016Z" fill="white"/>
<path d="M108.47 31.816C106.771 33.4213 104.774 34.224 102.478 34.224C100.2 34.224 98.3149 33.524 96.8216 32.124C95.3282 30.7053 94.5816 28.8107 94.5816 26.44C94.5816 24.0693 95.3376 22.184 96.8496 20.784C98.3802 19.384 100.182 18.684 102.254 18.684C104.326 18.684 106.08 19.3093 107.518 20.56C108.974 21.8107 109.702 23.528 109.702 25.712V27.952H98.7256C98.8562 28.7733 99.2856 29.4453 100.014 29.968C100.742 30.4907 101.563 30.752 102.478 30.752C103.952 30.752 105.166 30.2573 106.118 29.268L108.47 31.816ZM105.446 24.956C105.352 24.06 105.016 23.3693 104.438 22.884C103.859 22.3987 103.15 22.156 102.31 22.156C101.488 22.156 100.732 22.408 100.042 22.912C99.3509 23.416 98.9496 24.0973 98.8376 24.956H105.446Z" fill="white"/>
<path d="M120.654 22.632C119.404 22.632 118.47 23.08 117.854 23.976C117.238 24.8533 116.93 26.02 116.93 27.476V34H112.73V18.936H116.93V20.924C117.472 20.308 118.144 19.7853 118.946 19.356C119.768 18.9267 120.598 18.7027 121.438 18.684L121.466 22.632H120.654Z" fill="white"/>
<path d="M128.442 25.6V34H124.242V18.936H128.442V20.616C129.711 19.328 131.139 18.684 132.726 18.684C134.313 18.684 135.638 19.244 136.702 20.364C137.785 21.484 138.326 22.9773 138.326 24.844V34H134.126V25.488C134.126 23.1733 133.277 22.016 131.578 22.016C130.738 22.016 130.001 22.324 129.366 22.94C128.75 23.5373 128.442 24.424 128.442 25.6Z" fill="white"/>
<path d="M154.921 34H150.973V32.18C149.89 33.5427 148.546 34.224 146.941 34.224C145.354 34.224 144.019 33.7667 142.937 32.852C141.854 31.9187 141.313 30.6867 141.313 29.156C141.313 27.6067 141.873 26.4493 142.993 25.684C144.113 24.9187 145.643 24.536 147.585 24.536H150.721V24.452C150.721 22.8467 149.871 22.044 148.173 22.044C147.445 22.044 146.67 22.1933 145.849 22.492C145.046 22.772 144.365 23.1267 143.805 23.556L141.929 20.84C143.907 19.4027 146.166 18.684 148.705 18.684C150.534 18.684 152.027 19.1413 153.185 20.056C154.342 20.9707 154.921 22.4173 154.921 24.396V34ZM150.693 28.26V27.532H148.061C146.381 27.532 145.541 28.0547 145.541 29.1C145.541 29.6413 145.737 30.0613 146.129 30.36C146.539 30.64 147.118 30.78 147.865 30.78C148.611 30.78 149.265 30.556 149.825 30.108C150.403 29.6413 150.693 29.0253 150.693 28.26Z" fill="white"/>
<path d="M162.95 34H158.75V13.224H162.95V34Z" fill="white"/>
<defs>
<clipPath id="clip0_5:610">
<rect width="48" height="48" fill="white"/>
</clipPath>
</defs>
</svg>
