<svg width="93" height="98" viewBox="0 0 93 98" fill="none" xmlns="http://www.w3.org/2000/svg">
<path fillRule="evenodd" clipRule="evenodd" d="M85.4953 97.635C66.1079 97.635 46.7209 97.635 27.3338 97.635C22.4646 96.6833 20.4906 93.0583 20.6305 88.672C20.7838 83.8783 20.6653 79.0757 20.6653 74.277C20.6653 73.9426 20.6653 73.608 20.6653 73.2264C15.8257 73.2264 11.1226 73.1239 6.42627 73.2586C2.65897 73.3666 -0.0496022 70.7362 0.000688857 66.8976C0.11724 57.9692 0.108899 49.0371 0.00307283 40.1084C-0.0398295 36.488 2.36056 33.6976 6.34737 33.7627C10.7637 33.8344 15.1819 33.7789 19.5992 33.7789C19.9343 33.7789 20.2694 33.7789 20.6656 33.7789C20.6656 33.2677 20.6656 32.8906 20.6656 32.5135C20.6656 24.3464 20.6684 16.1789 20.6639 8.01177C20.6629 5.82661 21.2912 3.88576 22.825 2.28503C24.0596 0.996527 25.6336 0.372535 27.3338 0C40.1103 0 52.8869 0 65.6632 0C66.1189 0.335353 66.6347 0.613268 67.0222 1.01488C74.9899 9.26858 82.9352 17.544 90.9107 25.7898C91.6982 26.6037 92.0257 27.4549 92.0243 28.5877C91.999 48.8307 92.0059 69.0737 92.004 89.3169C92.004 89.7934 91.9993 90.271 91.9642 90.7458C91.8536 92.245 91.2947 93.5655 90.3821 94.7577C89.1379 96.383 87.4063 97.155 85.4953 97.635ZM88.2713 30.0464C87.7696 30.0464 87.3946 30.0464 87.0197 30.0464C79.5833 30.0464 72.1469 30.0474 64.7103 30.0455C62.5449 30.045 61.9972 29.4982 61.9969 27.3457C61.9955 19.8776 61.9962 12.4093 61.9962 4.94092C61.9962 4.57411 61.9962 4.20729 61.9962 3.77088C61.5324 3.77088 61.2176 3.77088 60.9029 3.77088C50.1931 3.77111 39.4832 3.76873 28.7734 3.77279C25.8772 3.77398 24.4493 5.20572 24.4483 8.1002C24.445 16.2995 24.4472 24.4987 24.4472 32.698C24.4472 33.0346 24.4472 33.3711 24.4472 33.7789C24.9515 33.7789 25.3274 33.7789 25.7032 33.7789C35.6821 33.7789 45.6609 33.7768 55.6402 33.7799C59.6662 33.7813 61.9924 36.0866 61.9953 40.0894C62.0015 49.0514 62.0022 58.0132 61.9874 66.9753C61.9862 67.6677 61.9304 68.382 61.7557 69.0487C61.0769 71.6443 58.8829 73.2207 55.9785 73.2231C45.8723 73.2309 35.7665 73.2264 25.6603 73.2264C25.2878 73.2264 24.915 73.2264 24.4472 73.2264C24.4472 73.6304 24.4472 73.9388 24.4472 74.2477C24.4472 79.3326 24.445 84.4173 24.4481 89.5021C24.4498 92.4562 25.861 93.8624 28.8346 93.8627C47.1716 93.8651 65.5087 93.8651 83.8457 93.8629C86.8562 93.8627 88.2691 92.4483 88.2696 89.4221C88.2727 70.0045 88.2713 50.5869 88.2713 31.1695C88.2713 30.8296 88.2713 30.4897 88.2713 30.0464ZM30.9912 69.4548C39.2506 69.4548 47.51 69.4574 55.7694 69.4532C57.5985 69.4522 58.2246 68.818 58.2249 66.9841C58.2275 58.0259 58.227 49.0674 58.2254 40.1089C58.2249 38.1676 57.6107 37.5612 55.6476 37.561C39.2241 37.56 22.8004 37.56 6.37693 37.561C4.366 37.561 3.77443 38.1516 3.77371 40.1833C3.77061 49.0781 3.77037 57.9727 3.77395 66.8678C3.77466 68.8814 4.36219 69.4541 6.40339 69.4546C14.5994 69.4558 22.7952 69.4548 30.9912 69.4548ZM86.1405 26.2698C79.293 19.1576 72.6055 12.211 65.8002 5.14232C65.8002 12.3287 65.8002 19.2858 65.8002 26.2698C72.5421 26.2698 79.2039 26.2698 86.1405 26.2698Z" fill="#BBABE3"/>
<path fillRule="evenodd" clipRule="evenodd" d="M26.1318 45.7263C28.9553 45.8262 31.7246 45.7726 34.457 46.0655C36.8786 46.3253 38.3459 48.0404 39.023 50.2723C39.8432 52.9756 39.8692 55.7075 38.6917 58.3704C37.818 60.346 36.3002 61.5976 34.2039 61.7456C31.5533 61.9324 28.8797 61.7906 26.1318 61.7906C26.1318 56.6052 26.1318 51.2898 26.1318 45.7263ZM29.3738 59.2041C29.6729 59.2277 29.8898 59.2634 30.1055 59.2584C31.0873 59.236 32.0733 59.253 33.0491 59.161C34.774 58.9986 35.6726 58.2655 35.9086 56.5291C36.1154 55.0068 36.1598 53.4349 36.0401 51.9038C35.9162 50.3171 35.1261 49.0019 33.3935 48.7409C32.0934 48.5452 30.7558 48.5967 29.3736 48.5355C29.3738 52.1517 29.3738 55.6256 29.3738 59.2041Z" fill="#BBABE3"/>
<path fillRule="evenodd" clipRule="evenodd" d="M14.3138 55.8445C14.3138 57.9534 14.3138 59.8854 14.3138 61.893C13.2358 61.893 12.2123 61.893 11.123 61.893C11.123 56.5686 11.123 51.2535 11.123 45.8156C11.9768 45.8156 12.7934 45.8006 13.6095 45.8185C15.5453 45.8614 17.4847 45.8592 19.4151 45.9893C21.2847 46.1152 22.7062 47.3253 23.1614 49.1365C23.9313 52.1995 22.8187 55.7463 18.0406 55.8407C16.8157 55.865 15.5897 55.8445 14.3138 55.8445ZM14.3944 48.66C14.3944 50.1802 14.3944 51.6234 14.3944 53.2091C15.7291 53.1276 16.9957 53.1166 18.2424 52.9545C19.3586 52.8094 20.0632 51.8839 20.0451 50.8273C20.0262 49.7326 19.2583 48.7718 18.1335 48.6822C16.912 48.5849 15.6762 48.66 14.3944 48.66Z" fill="#BBABE3"/>
<path fillRule="evenodd" clipRule="evenodd" d="M45.6861 48.5434C45.6861 49.8687 45.6861 51.0635 45.6861 52.397C46.7934 52.397 47.8943 52.397 48.995 52.397C50.0695 52.397 51.1437 52.397 52.2792 52.397C52.2792 53.3156 52.2792 54.1548 52.2792 55.1077C51.1618 55.1077 50.0602 55.1077 48.9586 55.1077C47.8853 55.1077 46.8118 55.1077 45.6625 55.1077C45.6625 57.3999 45.6625 59.6118 45.6625 61.8958C44.5606 61.8958 43.5338 61.8958 42.4434 61.8958C42.4434 56.5769 42.4434 51.2577 42.4434 45.8768C46.0731 45.8768 49.6798 45.8768 53.3625 45.8768C53.3625 46.7313 53.3625 47.571 53.3625 48.5434C50.8365 48.5434 48.2857 48.5434 45.6861 48.5434Z" fill="#BBABE3"/>
</svg>
