<svg width="58" height="68" viewBox="0 0 58 68" fill="none" xmlns="http://www.w3.org/2000/svg">
<path fillRule="evenodd" clipRule="evenodd" d="M29.3699 0C31.4267 0.663873 33.4789 1.34184 35.5408 1.98936C42.521 4.18074 49.5046 6.36003 56.486 8.54729C57.7448 8.94162 57.9415 9.22232 57.9416 10.5494C57.9417 17.99 57.9738 25.4308 57.9339 32.8712C57.8757 43.7475 53.8108 52.8557 45.6379 60.0487C40.9569 64.1684 35.4805 66.77 29.3596 67.9628C28.7466 68.0822 28.0431 67.8899 27.4099 67.7301C16.6924 65.0265 8.72433 58.8213 3.70042 48.9469C1.15803 43.9503 -0.00331558 38.6051 7.10886e-06 33.002C0.00439306 25.4728 0.000804838 17.9436 0.00133647 10.4144C0.00146938 9.26273 0.233659 8.9496 1.33666 8.6039C10.2158 5.82108 19.0951 3.0388 27.9733 0.253057C28.1792 0.188464 28.3731 0.0853267 28.5725 0C28.8384 0 29.1042 0 29.3699 0ZM2.65896 10.9686C2.65896 11.1799 2.65896 11.333 2.65896 11.4863C2.65949 18.7947 2.60353 26.104 2.69431 33.4112C2.72209 35.6539 2.91401 37.9482 3.4354 40.1219C6.40947 52.5212 14.0405 60.6922 26.1581 64.6456C27.5216 65.0904 28.875 65.4529 30.4188 65.0572C44.9952 61.3194 55.1428 48.4936 55.2703 33.445C55.3322 26.1369 55.2783 18.828 55.2945 11.5195C55.2955 11.0848 55.1541 10.9067 54.7549 10.7823C46.3135 8.15175 37.8768 5.50676 29.4336 2.88197C29.1432 2.79172 28.7742 2.80967 28.4796 2.90018C24.8875 4.00384 21.302 5.1289 17.7158 6.25131C12.7179 7.81563 7.72074 9.38274 2.65896 10.9686Z" fill="white"/>
<path fillRule="evenodd" clipRule="evenodd" d="M50.4949 25.2108C50.4949 28.0454 50.5295 30.8805 50.4868 33.7144C50.4214 38.0776 49.3676 42.2037 47.3638 46.0829C46.9172 46.9477 46.1929 47.2457 45.4717 46.8801C44.7487 46.5135 44.5588 45.7498 45.0044 44.8781C46.9673 41.0399 47.8771 36.9665 47.8493 32.6578C47.8159 27.4761 47.8309 22.2938 47.8567 17.112C47.8595 16.5587 47.6784 16.3628 47.1744 16.2065C41.2842 14.381 35.4029 12.5261 29.5131 10.6979C29.2004 10.601 28.8074 10.5857 28.4979 10.6818C22.5866 12.5152 16.6845 14.3774 10.7731 16.2109C10.2768 16.3648 10.0813 16.5459 10.0843 17.1075C10.1131 22.7101 10.0554 28.3134 10.1183 33.9155C10.2403 44.7944 17.9636 54.7143 28.4702 57.5584C28.7901 57.6451 29.1751 57.6461 29.4941 57.5579C32.2268 56.8026 34.7454 55.5869 37.0628 53.9541C37.2075 53.8522 37.3504 53.7469 37.5003 53.6532C38.1898 53.2228 38.9594 53.3468 39.3831 53.9528C39.8089 54.5616 39.7032 55.3782 39.0079 55.8111C37.3961 56.8145 35.7895 57.8486 34.087 58.6768C32.6856 59.3584 31.1578 59.789 29.6666 60.2704C29.2707 60.3983 28.779 60.3987 28.3713 60.297C17.4939 57.5847 9.07456 48.0356 7.69897 36.8465C7.54533 35.5972 7.45934 34.3318 7.45389 33.0733C7.42824 27.3378 7.44219 21.602 7.44286 15.8665C7.44299 14.7256 7.68621 14.4116 8.79174 14.0651C15.2453 12.042 21.6949 10.0064 28.1572 8.01074C28.6499 7.85857 29.2697 7.84993 29.7606 8.00131C36.2661 10.0069 42.7597 12.0515 49.2549 14.0905C50.2315 14.3971 50.4977 14.7666 50.4983 15.7771C50.5005 18.9217 50.4991 22.0663 50.4991 25.2108C50.4979 25.2108 50.4964 25.2108 50.4949 25.2108Z" fill="white"/>
<path fillRule="evenodd" clipRule="evenodd" d="M26.5574 31.8267C27.6681 30.7053 28.7217 29.6362 29.7812 28.573C31.3748 26.9738 32.9704 25.3766 34.569 23.7826C35.4673 22.887 36.0896 22.8918 36.9971 23.7963C38.3296 25.1245 39.6613 26.4533 40.988 27.7871C41.8322 28.6358 41.8413 29.2886 41.0053 30.1257C36.5792 34.5579 32.1499 38.987 27.7177 43.4134C26.8839 44.2462 26.2253 44.2354 25.3809 43.392C22.562 40.5766 19.7443 37.76 16.9295 34.9405C16.1114 34.1213 16.1089 33.4749 16.9212 32.6569C18.2938 31.2749 19.6704 29.8969 21.0523 28.5244C21.8221 27.7598 22.5152 27.7594 23.2892 28.5297C24.3682 29.6033 25.433 30.691 26.5574 31.8267ZM38.303 28.9808C37.4507 28.1259 36.6115 27.2846 35.732 26.4026C35.5839 26.5443 35.4083 26.7057 35.2399 26.8741C32.7519 29.3604 30.266 31.8487 27.7767 34.3338C26.8742 35.2349 26.2474 35.2344 25.3465 34.3356C24.3005 33.2919 23.2591 32.2437 22.2487 31.2305C21.3481 32.1322 20.4939 32.9873 19.7324 33.7498C22.0125 36.0335 24.3306 38.3548 26.6211 40.6487C30.4769 36.7975 34.3874 32.8916 38.303 28.9808Z" fill="white"/>
<path fillRule="evenodd" clipRule="evenodd" d="M43.9991 50.6519C43.995 51.3864 43.4268 51.958 42.6965 51.9624C41.9595 51.9669 41.3319 51.3295 41.3577 50.6029C41.3826 49.9002 42.0129 49.3013 42.7122 49.3161C43.4336 49.3315 44.0032 49.9226 43.9991 50.6519Z" fill="white"/>
</svg>
