<svg width="192" height="182" viewBox="0 0 192 182" fill="none" xmlns="http://www.w3.org/2000/svg">
<path fillRule="evenodd" clipRule="evenodd" d="M116.252 181.953C113.79 180.698 111.328 179.443 108.831 178.17C104.895 181.951 99.4989 181.093 96.8773 176.174C91.4419 177.067 89.0402 175.767 87.1357 170.853C83.0737 170.987 80.3733 169.149 79.1878 165.072C75.5716 165.257 72.81 163.857 71.5218 160.296C70.2355 156.739 72.19 154.066 74.541 151.148C73.7346 151.148 73.2069 150.994 72.8422 151.172C69.9228 152.598 67.1219 152.376 64.3784 150.724C63.1099 149.961 61.8155 149.239 60.564 148.449C58.236 146.98 57.56 144.453 58.9631 142.069C64.8053 132.14 70.6758 122.227 76.567 112.328C78.0067 109.908 80.5786 109.287 83.0471 110.676C84.4583 111.47 85.852 112.296 87.2269 113.151C89.9244 114.829 91.2863 117.283 91.2107 120.455C91.1899 121.328 91.4594 121.784 92.2061 122.181C94.0297 123.152 95.8934 123.354 97.8323 122.657C99.1805 122.173 100.521 121.661 101.841 121.105C105.286 119.656 108.634 119.871 111.826 121.759C112.84 122.359 113.729 122.398 114.814 122.067C116.537 121.543 118.329 121.244 120.051 120.718C122.664 119.921 125.155 120.186 127.63 121.238C128.99 121.816 130.355 122.447 131.782 122.779C132.983 123.058 134.277 122.94 135.698 123.005C134.954 119.601 135.224 116.628 137.649 114.583C139.739 112.821 142.203 111.421 144.677 110.221C146.671 109.254 148.829 110.37 150.136 112.572C154.79 120.409 159.429 128.254 164.073 136.097C165.204 138.007 166.351 139.91 167.463 141.831C169.001 144.492 168.354 147.007 165.73 148.605C164.387 149.423 163.036 150.232 161.667 151.005C159.913 151.993 157.982 152.523 156.058 151.905C154.228 151.317 153.095 152.26 151.768 153.147C153.68 156.058 153.984 159.007 151.869 161.836C149.871 164.506 147.106 165.158 143.782 164.258C143.374 166.259 142.496 168.007 140.764 169.186C139.08 170.331 137.222 170.719 135.107 170.27C134.654 172.752 133.556 174.759 131.29 175.929C129.071 177.074 126.838 176.951 124.468 175.842C123.861 179.127 121.792 181.013 118.753 181.952C117.92 181.953 117.086 181.953 116.252 181.953ZM111.417 174.592C111.859 174.87 112.241 175.122 112.635 175.355C113.829 176.062 114.988 176.843 116.233 177.448C118.191 178.399 120.511 176.918 120.212 174.821C120.087 173.947 119.371 172.99 118.651 172.407C117.513 171.484 116.12 170.882 114.881 170.075C113.842 169.398 113.578 168.273 114.115 167.296C114.673 166.284 115.846 165.955 116.999 166.51C117.373 166.69 117.719 166.927 118.077 167.139C120.905 168.812 123.714 170.516 126.566 172.145C128.017 172.972 129.651 172.506 130.446 171.176C131.237 169.85 130.833 168.242 129.457 167.297C129.114 167.062 128.743 166.868 128.385 166.656C125.361 164.862 122.334 163.07 119.311 161.275C118.363 160.711 117.832 159.809 118.285 158.828C118.583 158.183 119.373 157.591 120.069 157.364C120.551 157.206 121.304 157.615 121.843 157.93C125.958 160.333 130.051 162.776 134.15 165.206C134.468 165.395 134.781 165.596 135.106 165.771C136.676 166.617 138.299 166.278 139.134 164.936C140.018 163.516 139.595 161.86 137.993 160.898C133.708 158.327 129.395 155.803 125.096 153.256C124.699 153.02 124.277 152.804 123.935 152.501C123.106 151.764 122.912 150.852 123.471 149.879C124.035 148.897 124.943 148.647 125.983 148.977C126.415 149.114 126.801 149.402 127.199 149.638C132.774 152.935 138.347 156.238 143.924 159.532C144.401 159.813 144.882 160.108 145.398 160.294C146.68 160.754 148.064 160.207 148.737 159.032C149.377 157.916 149.179 156.49 148.199 155.607C147.792 155.241 147.298 154.962 146.823 154.679C140.974 151.207 135.122 147.741 129.27 144.275C126.26 142.492 123.247 140.713 120.175 138.896C119.915 139.413 119.729 139.83 119.502 140.223C117.753 143.267 115.15 144.951 111.616 145.08C109.127 145.171 106.906 143.554 106.968 141.115C107.103 135.722 105.475 130.057 109.093 125.112C107.499 124.238 105.921 124.132 104.316 124.695C102.703 125.26 101.111 125.887 99.5126 126.497C97.186 127.384 94.8176 127.535 92.4396 126.788C91.436 126.473 90.4906 125.976 89.4167 125.518C85.0638 132.867 80.7116 140.215 76.3595 147.564C76.4169 147.695 76.4747 147.827 76.5322 147.958C77.094 147.885 77.6962 147.916 78.2109 147.719C81.2705 146.549 84.393 147.342 86.4691 149.874C86.6625 150.11 86.866 150.338 87.0627 150.567C91.5546 146.85 97.5107 148.726 99.0901 154.412C101.628 154.21 103.832 154.953 105.475 156.992C107.107 159.017 107.356 161.335 106.697 163.765C111.594 165.159 113.785 169.721 111.417 174.592ZM146.116 113.999C144.617 114.879 143.301 115.639 141.997 116.421C139.371 117.996 138.826 120.11 140.361 122.746C141.013 123.866 141.697 124.967 142.336 126.094C143.078 127.401 142.862 128.62 141.813 129.257C140.755 129.9 139.561 129.515 138.768 128.272C138.619 128.038 138.451 127.809 138.345 127.555C137.986 126.693 137.53 126.453 136.533 126.79C134.421 127.503 132.242 127.446 130.126 126.689C128.56 126.128 127.044 125.41 125.454 124.938C124.419 124.631 123.241 124.371 122.214 124.56C119.719 125.022 117.257 125.698 114.813 126.401C112.437 127.084 111.101 128.979 111.054 131.636C111.006 134.415 111.04 137.194 111.049 139.973C111.049 140.238 111.127 140.503 111.219 141.077C112.208 140.759 113.174 140.609 113.971 140.159C115.752 139.154 116.325 137.441 116.468 135.481C116.6 133.683 118.038 132.915 119.634 133.72C120.334 134.074 120.992 134.513 121.668 134.914C130.07 139.887 138.468 144.866 146.885 149.814C147.334 150.078 148.03 150.312 148.454 150.149C149.289 149.829 150.013 149.221 150.849 148.69C149.84 146.978 148.88 145.348 147.917 143.721C146.623 141.53 145.321 139.343 144.033 137.149C143.516 136.269 143.393 135.254 144.189 134.607C144.745 134.154 145.708 133.913 146.414 134.03C146.956 134.12 147.495 134.847 147.838 135.41C149.903 138.812 151.9 142.254 153.945 145.668C155.085 147.572 156.915 148.472 158.743 147.696C160.63 146.895 162.358 145.721 164.271 144.647C158.171 134.35 152.189 124.252 146.116 113.999ZM80.4411 113.983C74.3461 124.272 68.3652 134.369 62.3009 144.606C63.605 145.386 64.7827 146.096 65.9668 146.796C69.2031 148.711 71.0775 148.244 72.9731 145.051C75.7836 140.317 78.5911 135.581 81.398 130.844C83.0493 128.058 84.7191 125.283 86.3386 122.478C87.5274 120.419 87.2199 118.265 85.4544 117.027C83.9102 115.945 82.2303 115.058 80.4411 113.983ZM94.8836 155.905C94.7457 154.367 94.1698 153.436 92.9473 152.995C91.5798 152.502 90.4751 152.979 89.6635 154.084C87.7502 156.691 85.8643 159.318 84.0076 161.965C82.9452 163.48 83.2035 165.2 84.5461 166.123C85.9243 167.07 87.5008 166.744 88.6355 165.195C90.4921 162.662 92.3228 160.109 94.1213 157.534C94.503 156.987 94.699 156.31 94.8836 155.905ZM99.9373 158.368C99.2487 158.769 98.353 159.013 97.9072 159.599C95.7837 162.39 93.737 165.243 91.7592 168.139C90.9113 169.382 91.3285 170.987 92.4892 171.831C93.6514 172.676 95.3468 172.591 96.2388 171.409C98.3789 168.573 100.496 165.71 102.44 162.738C103.625 160.926 102.194 158.612 99.9373 158.368ZM78.2042 161.069C78.8691 160.712 79.7151 160.506 80.1643 159.968C81.3427 158.557 82.4219 157.048 83.3991 155.49C84.1603 154.276 83.7301 152.748 82.6027 151.92C81.4295 151.059 79.8011 151.155 78.8598 152.317C77.7303 153.711 76.6456 155.163 75.7224 156.698C74.604 158.557 75.9581 160.827 78.2042 161.069ZM108.225 170.184C107.913 169.796 107.419 168.836 106.636 168.298C105.658 167.624 104.396 167.762 103.591 168.674C102.561 169.84 101.635 171.133 100.876 172.49C100.321 173.482 100.623 174.58 101.441 175.417C102.25 176.245 103.237 176.51 104.358 176.135C105.64 175.706 108.184 172.198 108.225 170.184Z" fill="white"/>
<path fillRule="evenodd" clipRule="evenodd" d="M117.086 39.6659C119.769 40.4252 121.681 42.2563 123.579 44.1793C129.336 50.0127 135.134 55.8071 140.965 61.5668C143.067 63.6421 144.076 66.0398 144.062 69.0052C144.012 80.304 144.042 91.6031 144.039 102.902C144.039 103.364 144.086 103.846 143.977 104.285C143.711 105.355 142.983 105.971 141.87 105.928C140.764 105.885 140.073 105.241 139.896 104.138C139.823 103.686 139.864 103.214 139.863 102.751C139.862 91.6839 139.863 80.6164 139.863 69.5488C139.863 68.9992 139.863 68.4493 139.863 67.7374C139.293 67.7022 138.808 67.647 138.324 67.6459C134.665 67.6385 131.007 67.6559 127.349 67.6385C120.634 67.6062 116.104 63.1006 116.061 56.3964C116.034 52.281 116.055 48.1653 116.055 43.8443C115.452 43.8443 114.961 43.8443 114.471 43.8443C94.0956 43.8443 73.7201 43.8424 53.3449 43.8457C48.8045 43.8465 46.1863 46.4535 46.1859 50.9877C46.1822 87.4322 46.1822 123.877 46.1863 160.32C46.1866 164.763 48.82 167.415 53.2578 167.427C60.0651 167.446 66.872 167.421 73.6793 167.45C74.3467 167.453 75.119 167.525 75.659 167.86C76.9975 168.691 76.7789 170.733 75.3273 171.36C74.8781 171.554 74.3389 171.607 73.8405 171.609C66.8479 171.624 59.8553 171.661 52.8631 171.604C47.483 171.561 43.2705 168.134 42.2136 163.015C42.0101 162.029 42.0087 160.99 42.0083 159.976C41.9987 123.763 41.9994 87.5508 42.0009 51.3382C42.0009 45.1109 44.6939 41.5729 50.7348 39.8345C50.8142 39.8115 50.8749 39.7233 50.9442 39.6655C72.9915 39.6659 95.0384 39.6659 117.086 39.6659ZM120.297 47.3585C120.29 47.4208 120.25 47.6387 120.252 47.8566C120.268 51.0933 120.142 54.3392 120.352 57.563C120.579 61.0465 123.279 63.3612 126.895 63.4305C129.853 63.4868 132.814 63.446 135.774 63.4356C136.014 63.4345 136.254 63.3326 136.262 63.3304C130.954 58.0203 125.618 52.682 120.297 47.3585Z" fill="white"/>
<path fillRule="evenodd" clipRule="evenodd" d="M92.9058 94.9902C81.9324 94.9902 70.9589 94.9902 59.9855 94.9895C59.5686 94.9895 59.1484 95.0166 58.7363 94.9695C57.6093 94.8413 56.9582 94.142 56.8722 93.0625C56.7844 91.9651 57.3844 91.1965 58.4528 90.9116C58.9327 90.7833 59.4619 90.8134 59.9688 90.8134C82.0087 90.8093 104.048 90.8093 126.088 90.8123C126.55 90.8123 127.032 90.7711 127.47 90.8838C128.594 91.1743 129.221 91.924 129.111 93.1151C129.009 94.232 128.33 94.8579 127.215 94.971C126.803 95.0128 126.383 94.9888 125.966 94.9888C114.945 94.9902 103.926 94.9902 92.9058 94.9902Z" fill="white"/>
<path fillRule="evenodd" clipRule="evenodd" d="M93.0214 77.9818C103.948 77.9818 114.876 77.9818 125.803 77.9822C126.266 77.9822 126.731 77.9604 127.191 78.0026C128.379 78.1116 129.062 78.7879 129.116 79.9715C129.172 81.17 128.488 81.8719 127.357 82.1124C126.911 82.2065 126.435 82.1621 125.973 82.1621C103.979 82.1639 81.9864 82.1635 59.9929 82.1635C59.8076 82.1635 59.6223 82.1665 59.4374 82.1628C57.8357 82.1298 56.8541 81.3386 56.8407 80.0708C56.8274 78.7971 57.7935 77.9896 59.4063 77.9859C64.407 77.9755 69.4073 77.9815 74.408 77.9815C80.6127 77.9818 86.817 77.9818 93.0214 77.9818Z" fill="white"/>
<path fillRule="evenodd" clipRule="evenodd" d="M75.9459 63.4446C81.2194 63.4446 86.4928 63.4431 91.7662 63.4472C92.2739 63.4472 92.7876 63.4413 93.2886 63.5109C94.4122 63.6673 95.0381 64.3911 95.0752 65.4758C95.1126 66.5712 94.496 67.3024 93.4057 67.5511C93.0503 67.6322 92.6723 67.6378 92.3043 67.6381C81.4339 67.6422 70.5632 67.6441 59.6928 67.6337C59.191 67.6337 58.511 67.703 58.2249 67.4225C57.6516 66.861 56.91 66.0532 56.9556 65.3968C57.0008 64.7435 57.8447 64.0357 58.4969 63.5769C58.8808 63.3067 59.5723 63.449 60.126 63.4483C65.3994 63.442 70.6725 63.4446 75.9459 63.4446Z" fill="white"/>
<path fillRule="evenodd" clipRule="evenodd" d="M160 95C160 94.3333 160 93.6666 160 93C160.081 92.4146 160.145 91.8262 160.245 91.2441C161.358 84.7598 166.435 79.5591 172.874 78.3153C173.597 78.1756 174.333 78.1034 175.062 78C175.708 78 176.354 78 177 78C177.534 78.0697 178.071 78.1219 178.602 78.212C181.641 78.7277 184.327 79.9957 186.622 82.0537C189.38 84.5266 191.103 87.5912 191.753 91.2453C191.857 91.8265 191.919 92.415 192 93C192 93.6459 192 94.2917 192 94.9375C191.982 95.0377 191.961 95.1374 191.947 95.2382C191.86 95.8662 191.805 96.5005 191.685 97.122C190.436 103.567 185.227 108.653 178.755 109.755C178.173 109.854 177.585 109.919 177 110C176.333 110 175.667 110 175 110C174.931 109.982 174.863 109.954 174.793 109.949C173.437 109.852 172.11 109.603 170.835 109.131C165.024 106.978 161.498 102.855 160.253 96.7863C160.133 96.1982 160.083 95.5957 160 95ZM175.702 108.932C183.978 109.069 190.767 102.53 190.923 94.3086C191.081 86.0097 184.498 79.1874 176.295 79.067C168.01 78.9455 161.194 85.5034 161.066 93.719C160.938 101.975 167.516 108.813 175.702 108.932Z" fill="#FFB800"/>
<path fillRule="evenodd" clipRule="evenodd" d="M170.645 103.082C169.666 102.936 169.071 102.326 169.065 101.477C169.06 100.621 169.63 100.029 170.653 99.843C170.653 95.956 170.653 92.0658 170.653 88.1489C170.113 88.1003 169.622 87.9053 169.355 87.4213C169.191 87.1259 169.08 86.7573 169.084 86.4229C169.092 85.6154 169.695 85.0665 170.633 84.9164C170.739 83.9481 171.389 83.3181 172.319 83.3372C173.166 83.3546 173.7 83.9103 173.89 84.9205C174.227 84.9205 174.567 84.9205 174.891 84.9205C174.958 84.6878 174.997 84.46 175.088 84.2555C175.372 83.6192 176.071 83.2491 176.75 83.3527C177.483 83.4648 178.02 83.994 178.114 84.7327C178.137 84.9167 178.2 84.9699 178.372 84.9988C180.421 85.3439 181.869 86.4798 182.589 88.4208C183.31 90.3647 182.931 92.1653 181.616 93.7673C181.564 93.8316 181.508 93.8931 181.454 93.9566C181.448 93.9639 181.446 93.9752 181.435 94.0037C182.865 95.624 183.352 97.4868 182.599 99.5489C181.851 101.598 180.297 102.72 178.162 103.053C178.081 103.933 177.54 104.661 176.498 104.662C175.65 104.663 175.046 104.042 174.92 103.087C174.587 103.087 174.249 103.087 173.884 103.087C173.833 103.589 173.663 104.071 173.208 104.341C172.917 104.513 172.554 104.646 172.221 104.652C171.381 104.666 170.83 104.085 170.645 103.082ZM174.391 102C174.693 102 174.995 101.999 175.297 102C175.828 102.002 175.998 102.176 176 102.718C176 102.853 175.991 102.99 176.007 103.123C176.04 103.402 176.27 103.601 176.539 103.597C176.809 103.594 177.031 103.392 177.059 103.111C177.072 102.977 177.064 102.84 177.064 102.705C177.067 102.185 177.233 102.014 177.75 101.996C179.477 101.938 181.013 100.824 181.608 99.1978C182.206 97.5646 181.737 95.7072 180.435 94.5525C179.952 94.1247 179.953 93.8755 180.439 93.4428C182.244 91.8362 182.348 89.0319 180.664 87.3021C179.856 86.4731 178.867 86.0474 177.713 86.0023C177.254 85.9845 177.071 85.8021 177.065 85.3503C177.063 85.2046 177.071 85.0582 177.06 84.9132C177.038 84.6137 176.814 84.4015 176.533 84.4014C176.252 84.4013 176.026 84.6127 176.004 84.9125C175.991 85.0991 176.008 85.2877 175.996 85.4744C175.977 85.7761 175.778 85.9892 175.478 85.9941C174.76 86.0058 174.041 86.0059 173.323 85.9941C173.017 85.9891 172.826 85.7808 172.808 85.4758C172.798 85.3097 172.81 85.1425 172.802 84.9762C172.785 84.6302 172.57 84.4029 172.267 84.4023C171.963 84.4017 171.753 84.629 171.739 84.9754C171.737 85.0482 171.739 85.1211 171.738 85.1941C171.737 85.8551 171.593 85.9991 170.93 85.9996C170.397 86 170.135 86.1742 170.132 86.5291C170.13 86.886 170.392 87.0638 170.923 87.0644C171.6 87.065 171.738 87.2061 171.738 87.8954C171.738 91.9667 171.738 96.0381 171.738 100.109C171.738 100.193 171.742 100.276 171.737 100.359C171.713 100.73 171.513 100.922 171.136 100.934C170.98 100.939 170.823 100.929 170.667 100.938C170.354 100.955 170.126 101.188 170.133 101.476C170.138 101.752 170.357 101.975 170.655 101.996C170.821 102.007 170.988 101.995 171.155 102.001C171.512 102.013 171.713 102.205 171.735 102.561C171.746 102.727 171.733 102.894 171.741 103.061C171.757 103.37 171.959 103.581 172.242 103.595C172.534 103.609 172.77 103.397 172.799 103.079C172.813 102.913 172.8 102.746 172.806 102.579C172.817 102.202 173.01 102.009 173.391 102.001C173.724 101.995 174.058 102 174.391 102Z" fill="#FFB800"/>
<path fillRule="evenodd" clipRule="evenodd" d="M175.993 80.1198C176.354 80.1404 176.718 80.1551 177.081 80.184C177.401 80.2094 177.611 80.4427 177.596 80.7357C177.581 81.0299 177.354 81.241 177.031 81.2431C176.335 81.2477 175.639 81.2481 174.943 81.2439C174.625 81.242 174.393 81.024 174.379 80.7342C174.366 80.4446 174.581 80.2099 174.899 80.1849C175.262 80.1563 175.626 80.141 175.993 80.1198Z" fill="#FFB800"/>
<path fillRule="evenodd" clipRule="evenodd" d="M170.81 105.926C170.82 106.417 170.428 106.706 170.077 106.522C169.408 106.172 168.756 105.787 168.114 105.389C167.855 105.229 167.828 104.912 167.99 104.674C168.151 104.436 168.435 104.368 168.704 104.521C169.317 104.869 169.931 105.214 170.53 105.584C170.671 105.672 170.754 105.854 170.81 105.926Z" fill="#FFB800"/>
<path fillRule="evenodd" clipRule="evenodd" d="M165.617 86.3586C165.53 86.5532 165.485 86.6797 165.42 86.7944C165.107 87.3446 164.783 87.8889 164.473 88.4407C164.276 88.7917 164.008 88.9154 163.712 88.7688C163.42 88.6238 163.329 88.3127 163.52 87.966C163.855 87.3571 164.207 86.7572 164.566 86.1619C164.702 85.9358 164.936 85.817 165.18 85.9408C165.352 86.0277 165.473 86.2159 165.617 86.3586Z" fill="#FFB800"/>
<path fillRule="evenodd" clipRule="evenodd" d="M165.596 101.657C165.481 101.78 165.369 101.994 165.208 102.042C165.045 102.092 164.733 102.042 164.657 101.925C164.224 101.256 163.822 100.565 163.453 99.8594C163.33 99.6232 163.454 99.3684 163.716 99.2348C163.961 99.1097 164.247 99.181 164.395 99.4301C164.767 100.054 165.126 100.685 165.485 101.315C165.53 101.394 165.543 101.49 165.596 101.657Z" fill="#FFB800"/>
<path fillRule="evenodd" clipRule="evenodd" d="M170.814 82.0695C170.749 82.1457 170.649 82.3363 170.491 82.4344C169.919 82.7912 169.327 83.1175 168.742 83.4545C168.454 83.6202 168.164 83.5697 167.996 83.3267C167.819 83.0726 167.87 82.7467 168.162 82.5687C168.773 82.1954 169.392 81.8328 170.025 81.4971C170.402 81.2971 170.804 81.5462 170.814 82.0695Z" fill="#FFB800"/>
<path fillRule="evenodd" clipRule="evenodd" d="M181.753 81.4221C181.816 81.443 181.932 81.462 182.028 81.516C182.615 81.8463 183.203 82.1747 183.778 82.5242C184.112 82.727 184.188 83.0437 184.009 83.3156C183.828 83.5907 183.534 83.6186 183.189 83.4146C182.627 83.0826 182.06 82.7595 181.493 82.4366C181.245 82.2959 181.131 82.0886 181.201 81.8141C181.264 81.5682 181.443 81.4365 181.753 81.4221Z" fill="#FFB800"/>
<path fillRule="evenodd" clipRule="evenodd" d="M188.57 88.2821C188.56 88.5456 188.421 88.7144 188.179 88.7869C187.942 88.8577 187.733 88.7763 187.61 88.571C187.232 87.939 186.863 87.3009 186.505 86.6574C186.372 86.4191 186.455 86.1425 186.672 85.9968C186.899 85.8452 187.182 85.8254 187.321 86.0434C187.76 86.732 188.151 87.4516 188.558 88.1608C188.576 88.1935 188.567 88.2424 188.57 88.2821Z" fill="#FFB800"/>
<path fillRule="evenodd" clipRule="evenodd" d="M163.181 93.7651C163.201 94.1489 163.222 94.5327 163.24 94.9165C163.259 95.3249 163.059 95.5897 162.728 95.5991C162.408 95.6082 162.186 95.3816 162.178 94.9821C162.165 94.3077 162.167 93.6326 162.182 92.9583C162.189 92.6117 162.425 92.3897 162.723 92.3995C163.037 92.4099 163.247 92.6578 163.24 93.0172C163.238 93.1417 163.221 93.2659 163.213 93.3904C163.206 93.5149 163.202 93.6396 163.196 93.7641C163.191 93.7644 163.186 93.7648 163.181 93.7651Z" fill="#FFB800"/>
<path fillRule="evenodd" clipRule="evenodd" d="M188.569 99.7732C188.55 99.8318 188.532 99.9373 188.482 100.025C188.15 100.611 187.821 101.2 187.472 101.776C187.268 102.111 186.952 102.187 186.681 102.008C186.406 101.826 186.378 101.533 186.583 101.187C186.911 100.634 187.232 100.077 187.55 99.5182C187.688 99.2741 187.884 99.1387 188.163 99.2074C188.422 99.2709 188.563 99.4541 188.569 99.7732Z" fill="#FFB800"/>
<path fillRule="evenodd" clipRule="evenodd" d="M189.882 94.1022C189.858 94.47 189.846 94.7815 189.817 95.0917C189.789 95.4063 189.548 95.6158 189.257 95.5974C188.978 95.5798 188.762 95.3592 188.759 95.0568C188.752 94.3514 188.751 93.6457 188.759 92.9403C188.763 92.6252 188.998 92.402 189.292 92.4027C189.573 92.4033 189.793 92.6069 189.816 92.9134C189.848 93.3275 189.862 93.7427 189.882 94.1022Z" fill="#FFB800"/>
<path fillRule="evenodd" clipRule="evenodd" d="M184.105 105.068C184.047 105.149 183.975 105.345 183.834 105.431C183.226 105.809 182.604 106.166 181.974 106.507C181.67 106.671 181.37 106.551 181.238 106.268C181.112 105.999 181.213 105.73 181.504 105.562C182.089 105.223 182.672 104.883 183.258 104.548C183.651 104.323 184.093 104.546 184.105 105.068Z" fill="#FFB800"/>
<path fillRule="evenodd" clipRule="evenodd" d="M175.871 106.813C176.17 106.798 176.553 106.777 176.937 106.76C177.326 106.744 177.577 106.939 177.595 107.264C177.612 107.585 177.387 107.813 176.99 107.821C176.317 107.835 175.642 107.833 174.969 107.819C174.604 107.811 174.382 107.568 174.405 107.255C174.428 106.941 174.671 106.746 175.039 106.76C175.288 106.769 175.536 106.791 175.871 106.813Z" fill="#FFB800"/>
<path fillRule="evenodd" clipRule="evenodd" d="M172.804 90.2477C172.804 89.4153 172.803 88.5828 172.805 87.7505C172.806 87.2497 172.984 87.067 173.473 87.0651C174.097 87.0628 174.722 87.0623 175.346 87.0655C175.801 87.0678 175.998 87.2592 175.999 87.708C176.001 89.4144 176.001 91.1209 175.998 92.8273C175.998 93.2652 175.811 93.4573 175.373 93.4622C174.718 93.4693 174.062 93.4704 173.407 93.4615C172.985 93.4557 172.807 93.2664 172.805 92.8387C172.802 91.9749 172.804 91.1112 172.804 90.2477ZM174.908 92.38C174.908 90.9404 174.908 89.5413 174.908 88.1498C174.552 88.1498 174.223 88.1498 173.89 88.1498C173.89 89.5704 173.89 90.9708 173.89 92.38C174.24 92.38 174.569 92.38 174.908 92.38Z" fill="#FFB800"/>
<path fillRule="evenodd" clipRule="evenodd" d="M172.805 97.7109C172.804 96.8682 172.802 96.0253 172.805 95.1825C172.807 94.7219 172.984 94.541 173.447 94.5367C174.082 94.5309 174.717 94.5312 175.351 94.5368C175.812 94.5409 175.998 94.7271 175.999 95.181C176.001 96.8874 176.001 98.5938 175.999 100.3C175.998 100.732 175.8 100.931 175.368 100.934C174.723 100.938 174.078 100.938 173.433 100.934C172.999 100.931 172.807 100.738 172.806 100.302C172.802 99.4382 172.805 98.5745 172.805 97.7109ZM173.897 95.6194C173.897 97.0421 173.897 98.4491 173.897 99.8496C174.253 99.8496 174.581 99.8496 174.914 99.8496C174.914 98.429 174.914 97.0288 174.914 95.6194C174.564 95.6194 174.235 95.6194 173.897 95.6194Z" fill="#FFB800"/>
<path fillRule="evenodd" clipRule="evenodd" d="M177.064 90.2497C177.064 89.4168 177.063 88.5837 177.065 87.7508C177.066 87.2372 177.282 87.0407 177.802 87.0721C179.478 87.1729 180.813 88.6016 180.803 90.2819C180.792 91.9869 179.437 93.3904 177.739 93.4549C177.27 93.4726 177.067 93.2828 177.065 92.8111C177.062 91.9573 177.064 91.1036 177.064 90.2497ZM178.146 88.2372C178.146 89.6015 178.146 90.9469 178.146 92.2949C179.025 92.1429 179.732 91.2359 179.737 90.2732C179.741 89.3144 179.039 88.4026 178.146 88.2372Z" fill="#FFB800"/>
<path fillRule="evenodd" clipRule="evenodd" d="M177.064 97.7328C177.064 96.8893 177.063 96.046 177.065 95.2026C177.066 94.7111 177.265 94.5252 177.756 94.5461C179.453 94.6186 180.804 96.0327 180.803 97.7351C180.801 99.4182 179.459 100.838 177.785 100.929C177.284 100.956 177.067 100.758 177.065 100.263C177.063 99.4195 177.064 98.5761 177.064 97.7328ZM178.145 99.7563C179.015 99.6332 179.752 98.6764 179.736 97.7084C179.72 96.7392 178.962 95.789 178.145 95.7152C178.145 97.0616 178.145 98.4079 178.145 99.7563Z" fill="#FFB800"/>
<path fillRule="evenodd" clipRule="evenodd" d="M32 38.9998C32 39.6457 32 40.2915 32 40.9373C31.9821 41.0375 31.9607 41.1372 31.9468 41.2379C31.8601 41.866 31.8051 42.5003 31.6846 43.1217C30.4361 49.5663 25.2268 54.653 18.7547 55.7543C18.1728 55.8533 17.5851 55.9187 17 55.9997C16.3333 55.9997 15.6667 55.9997 15 55.9997C14.9313 55.982 14.8632 55.9533 14.7936 55.9484C13.4375 55.8521 12.1098 55.6025 10.8354 55.1304C5.02384 52.9779 1.49809 48.8543 0.25328 42.7861C0.132682 42.198 0.0827597 41.5956 0 40.9998C0 40.3332 0 39.6665 0 38.9998C0.0806761 38.4144 0.144767 37.8261 0.244695 37.244C1.35816 30.7598 6.43492 25.5591 12.874 24.3153C13.5968 24.1756 14.3326 24.1034 15.0623 24C15.7082 24 16.354 24 16.9998 24C17.5341 24.0697 18.0712 24.1219 18.6021 24.212C21.6405 24.7277 24.3272 25.9957 26.622 28.0536C29.3798 30.5266 31.1028 33.5911 31.7531 37.2452C31.8567 37.8262 31.9189 38.4148 32 38.9998ZM30.9315 39.695C30.8167 31.5398 23.9997 24.9598 15.7748 25.0652C7.52688 25.1709 0.922441 31.9756 1.07663 40.301C1.22956 48.56 8.0196 55.0959 16.3156 54.9251C24.5462 54.7557 31.0725 47.9611 30.9315 39.695Z" fill="#FFB800"/>
<path fillRule="evenodd" clipRule="evenodd" d="M16.9914 36.9563C17.7635 36.7473 18.4849 36.5506 19.207 36.357C20.1696 36.0988 21.0225 36.55 21.2748 37.4483C21.5228 38.3313 21.0022 39.1779 20.0466 39.441C18.934 39.7472 17.8198 40.0476 16.7093 40.361C16.6097 40.3892 16.4669 40.4847 16.4541 40.5661C16.2924 41.6032 16.1506 42.6436 15.9983 43.7219C16.1231 43.7279 16.2311 43.7376 16.339 43.7377C17.6096 43.7388 18.8802 43.736 20.1508 43.7392C21.2076 43.7419 21.8654 44.3998 21.8697 45.4538C21.8723 46.0995 21.8743 46.7453 21.8692 47.3909C21.8613 48.3827 21.1866 49.062 20.1992 49.0632C17.3977 49.0664 14.5962 49.0671 11.7946 49.0629C10.7089 49.0612 10.0082 48.2185 10.1665 47.137C10.4029 45.5208 10.6316 43.9033 10.8619 42.2861C10.8762 42.1855 10.8751 42.0825 10.8832 41.9454C10.1349 42.1492 9.41839 42.3537 8.69639 42.5363C8.4271 42.6044 8.14099 42.6719 7.86912 42.6516C7.05353 42.5908 6.47446 41.9849 6.39878 41.1703C6.33052 40.4353 6.83158 39.7312 7.60059 39.5159C8.76189 39.1909 9.92553 38.8739 11.0923 38.5692C11.3299 38.5072 11.416 38.4053 11.4504 38.156C11.7932 35.6721 12.15 33.1901 12.5116 30.7089C12.6292 29.9021 13.2548 29.3541 14.0845 29.3332C14.7923 29.3154 15.5013 29.311 16.2089 29.3337C17.2639 29.3675 17.9312 30.2131 17.777 31.2624C17.5151 33.0433 17.2648 34.8258 17.0115 36.6078C16.9972 36.7082 16.9994 36.8108 16.9914 36.9563ZM15.9879 47.9997C17.3525 47.9997 18.7171 48.0002 20.0816 47.9995C20.631 47.9991 20.8035 47.8237 20.8045 47.2653C20.8057 46.682 20.8061 46.0988 20.8045 45.5154C20.8029 44.977 20.6317 44.8053 20.0939 44.8049C18.7606 44.8037 17.4273 44.8078 16.094 44.8031C15.3147 44.8003 14.8447 44.2724 14.9484 43.5067C15.0936 42.4342 15.2862 41.3672 15.3963 40.2915C15.4543 39.7258 15.7105 39.4894 16.2424 39.3616C17.4248 39.0772 18.5932 38.735 19.7659 38.4114C20.1513 38.3049 20.3232 38.0514 20.2458 37.7328C20.1709 37.424 19.8779 37.2819 19.4984 37.3775C19.2362 37.4435 18.9763 37.5183 18.7155 37.5895C18.0233 37.7785 17.3316 37.9689 16.6391 38.1563C16.0252 38.3225 15.745 38.0777 15.8153 37.44C15.8199 37.3986 15.8248 37.3572 15.8307 37.316C16.1303 35.2354 16.4308 33.1549 16.7292 31.0742C16.7852 30.6835 16.5789 30.4119 16.1819 30.4024C15.4949 30.3861 14.8069 30.3889 14.1197 30.4013C13.7841 30.4074 13.6133 30.582 13.5625 30.9194C13.4788 31.475 13.3979 32.0312 13.3188 32.5875C13.021 34.6788 12.7233 36.7702 12.4283 38.862C12.3842 39.1748 12.2321 39.369 11.9128 39.4461C11.458 39.5558 11.0094 39.6902 10.5582 39.8139C9.67583 40.056 8.79223 40.2935 7.91171 40.542C7.56809 40.639 7.41732 40.8908 7.49041 41.1971C7.56109 41.4933 7.82887 41.6398 8.17232 41.5686C8.23325 41.5561 8.29317 41.5379 8.35335 41.5216C9.29654 41.2649 10.2393 41.0072 11.1829 40.752C11.8725 40.5655 12.1512 40.8168 12.0494 41.5263C11.7774 43.4217 11.507 45.3173 11.2351 47.2126C11.1533 47.7828 11.341 47.9992 11.9255 47.9995C13.2796 48.0002 14.6337 47.9997 15.9879 47.9997Z" fill="#FFB800"/>
<path fillRule="evenodd" clipRule="evenodd" d="M16.1238 27.1869C15.8413 27.2011 15.4675 27.221 15.0936 27.2381C14.6803 27.2569 14.422 27.0656 14.404 26.7308C14.3868 26.4093 14.6083 26.185 15.0124 26.1762C15.6978 26.1615 16.3838 26.165 17.0692 26.1811C17.4145 26.1891 17.634 26.4296 17.6204 26.7289C17.6068 27.0282 17.3649 27.2456 17.026 27.2407C16.7559 27.2368 16.4862 27.2096 16.1238 27.1869Z" fill="#FFB800"/>
<path fillRule="evenodd" clipRule="evenodd" d="M10.8109 51.928C10.8187 52.42 10.4263 52.704 10.0728 52.5196C9.41053 52.174 8.76571 51.7929 8.1288 51.4019C7.86768 51.2416 7.83143 50.9289 7.98728 50.6866C8.14288 50.4448 8.43333 50.3674 8.69936 50.518C9.32319 50.8708 9.94759 51.2236 10.5572 51.5999C10.6903 51.682 10.7625 51.8626 10.8109 51.928Z" fill="#FFB800"/>
<path fillRule="evenodd" clipRule="evenodd" d="M8.38296 29.618C8.23669 29.4895 8.05225 29.3848 7.95358 29.2266C7.82664 29.0231 7.87482 28.7653 8.07734 28.6402C8.74809 28.226 9.43 27.8278 10.1251 27.4561C10.3592 27.331 10.6393 27.4817 10.7537 27.7176C10.8743 27.9666 10.8363 28.2183 10.6111 28.3574C9.95773 28.761 9.28465 29.1331 8.61749 29.5142C8.56565 29.5438 8.49881 29.5472 8.43897 29.5628C8.4203 29.5812 8.40163 29.5996 8.38296 29.618Z" fill="#FFB800"/>
<path fillRule="evenodd" clipRule="evenodd" d="M21.7743 27.4254C21.8323 27.4458 21.9469 27.4682 22.0434 27.5226C22.6209 27.8481 23.2003 28.1713 23.7669 28.5152C24.1151 28.7267 24.1938 29.0552 24.0005 29.3296C23.8143 29.594 23.5231 29.6117 23.1755 29.4051C22.6234 29.0769 22.064 28.7612 21.5069 28.4416C21.2374 28.287 21.1195 28.0525 21.2044 27.7979C21.2852 27.5558 21.4593 27.4275 21.7743 27.4254Z" fill="#FFB800"/>
<path fillRule="evenodd" clipRule="evenodd" d="M27.0658 31.891C27.146 31.9482 27.3411 32.0211 27.4279 32.1611C27.8053 32.7688 28.163 33.3897 28.5032 34.0191C28.667 34.322 28.5478 34.6211 28.264 34.755C27.9946 34.8821 27.7278 34.7826 27.5584 34.4902C27.2201 33.9066 26.8808 33.3238 26.5457 32.7386C26.3211 32.3462 26.543 31.9042 27.0658 31.891Z" fill="#FFB800"/>
<path fillRule="evenodd" clipRule="evenodd" d="M3.18628 39.8619C3.20203 40.1669 3.2242 40.5506 3.24103 40.9347C3.25803 41.3246 3.06351 41.5795 2.74156 41.5979C2.41985 41.6163 2.18774 41.3886 2.17974 40.9953C2.16591 40.3209 2.16682 39.6457 2.18166 38.9714C2.18974 38.6052 2.43202 38.3796 2.74147 38.4015C3.05659 38.4238 3.25378 38.6687 3.24012 39.0352C3.23078 39.2843 3.2082 39.5329 3.18628 39.8619Z" fill="#FFB800"/>
<path fillRule="evenodd" clipRule="evenodd" d="M4.07626 45.1894C4.15093 45.2522 4.33537 45.346 4.42863 45.4966C4.78959 46.0787 5.12346 46.6779 5.46317 47.273C5.62569 47.5579 5.56085 47.852 5.31099 48.0123C5.05987 48.1734 4.74667 48.1258 4.5759 47.8466C4.19685 47.2268 3.82823 46.5993 3.49061 45.9564C3.29392 45.5822 3.56278 45.1817 4.07626 45.1894Z" fill="#FFB800"/>
<path fillRule="evenodd" clipRule="evenodd" d="M28.5727 45.7509C28.5528 45.8155 28.5389 45.9228 28.4897 46.0098C28.153 46.6054 27.8188 47.203 27.463 47.7874C27.2626 48.1165 26.9346 48.1875 26.6686 48.0001C26.4099 47.8181 26.3821 47.5289 26.5754 47.2012C26.907 46.6384 27.2319 46.0716 27.5571 45.5051C27.6971 45.261 27.8998 45.1356 28.1776 45.2101C28.4217 45.2757 28.5555 45.4535 28.5727 45.7509Z" fill="#FFB800"/>
<path fillRule="evenodd" clipRule="evenodd" d="M29.8816 40.112C29.8591 40.4725 29.8455 40.7735 29.82 41.0735C29.7926 41.3942 29.5668 41.6065 29.2758 41.5995C28.9858 41.5922 28.7615 41.3619 28.7589 41.0441C28.753 40.3491 28.7534 39.6538 28.7589 38.9588C28.7614 38.6386 28.9793 38.4137 29.2742 38.4037C29.5672 38.3937 29.7945 38.6027 29.818 38.9264C29.8481 39.3404 29.8632 39.7556 29.8816 40.112Z" fill="#FFB800"/>
<path fillRule="evenodd" clipRule="evenodd" d="M24.1791 50.9773C24.0435 51.1598 23.9664 51.3511 23.825 51.4388C23.2253 51.8107 22.6127 52.1631 21.9924 52.4996C21.6834 52.6673 21.3864 52.5617 21.2459 52.2856C21.1058 52.01 21.2097 51.7331 21.5159 51.5564C22.0915 51.224 22.6577 50.8736 23.2468 50.567C23.4064 50.4838 23.6563 50.4716 23.823 50.5355C23.9642 50.5897 24.0451 50.8009 24.1791 50.9773Z" fill="#FFB800"/>
<path fillRule="evenodd" clipRule="evenodd" d="M4.07735 34.8077C3.59288 34.8224 3.29385 34.4271 3.47512 34.0784C3.82374 33.4079 4.21054 32.7559 4.60892 32.1132C4.76585 31.86 5.09389 31.8362 5.32742 31.9995C5.54861 32.1542 5.62404 32.4408 5.48327 32.6906C5.13198 33.3138 4.77877 33.9363 4.40373 34.5452C4.32113 34.6793 4.1447 34.7557 4.07735 34.8077Z" fill="#FFB800"/>
<path fillRule="evenodd" clipRule="evenodd" d="M15.7633 52.8176C16.1571 52.7981 16.5509 52.7758 16.9448 52.7599C17.3307 52.7442 17.5828 52.945 17.5958 53.2708C17.6082 53.5826 17.3865 53.8118 17.0146 53.8191C16.3305 53.8326 15.6458 53.8318 14.9617 53.8176C14.6139 53.8105 14.3952 53.5785 14.403 53.2784C14.4114 52.9624 14.6564 52.7521 15.0161 52.7584C15.1405 52.7606 15.2646 52.7771 15.3889 52.7847C15.5133 52.7924 15.6378 52.797 15.7622 52.803C15.7626 52.8079 15.7629 52.8128 15.7633 52.8176Z" fill="#FFB800"/>
<path fillRule="evenodd" clipRule="evenodd" d="M123 17C123 16.3333 123 15.6666 123 15C123.081 14.4146 123.145 13.8262 123.245 13.2441C124.358 6.75984 129.435 1.55911 135.874 0.315289C136.597 0.175604 137.333 0.10343 138.062 0C138.708 0 139.354 0 140 0C140.534 0.0696754 141.071 0.121931 141.602 0.212026C144.641 0.727674 147.327 1.99575 149.622 4.05367C152.38 6.52665 154.103 9.5912 154.753 13.2453C154.857 13.8265 154.919 14.415 155 15C155 15.6459 155 16.2917 155 16.9375C154.982 17.0377 154.961 17.1374 154.947 17.2382C154.86 17.8662 154.805 18.5005 154.685 19.122C153.436 25.5666 148.227 30.6533 141.755 31.7546C141.173 31.8536 140.585 31.9191 140 32C139.333 32 138.667 32 138 32C137.931 31.9823 137.863 31.9537 137.793 31.9487C136.437 31.8524 135.11 31.6028 133.835 31.1307C128.024 28.9782 124.498 24.8546 123.253 18.7863C123.133 18.1982 123.083 17.5957 123 17ZM138.705 30.9317C146.962 31.0678 153.748 24.5542 153.923 16.337C154.1 8.03017 147.508 1.18681 139.292 1.06705C131.008 0.946368 124.192 7.50661 124.066 15.7218C123.939 23.9788 130.517 30.8135 138.705 30.9317Z" fill="#FFB800"/>
<path fillRule="evenodd" clipRule="evenodd" d="M139.009 4.26184C145.526 4.30452 150.776 9.58476 150.737 16.0588C150.699 22.5611 145.379 27.7935 138.864 27.7377C132.423 27.6824 127.214 22.3569 127.263 15.8794C127.311 9.47908 132.629 4.22009 139.009 4.26184ZM131.535 20.2605C131.535 20.0933 131.535 19.9701 131.535 19.8469C131.535 17.2536 131.535 14.6604 131.536 12.0672C131.536 11.9215 131.536 11.7748 131.552 11.6306C131.614 11.0975 132.047 10.7039 132.58 10.6748C132.953 10.6545 133.237 10.818 133.503 11.0568C135.221 12.6037 136.942 14.147 138.662 15.6912C138.769 15.787 138.878 15.8805 138.993 15.9814C139.076 15.9151 139.143 15.8675 139.203 15.8131C140.296 14.8325 141.388 13.8509 142.481 12.87C143.194 12.23 143.898 11.5798 144.624 10.9549C145.244 10.4214 146.163 10.67 146.4 11.4255C146.458 11.6093 146.462 11.8153 146.462 12.0111C146.466 14.6252 146.465 17.2393 146.465 19.8534C146.465 19.9827 146.465 20.1121 146.465 20.2613C147.185 20.2613 147.851 20.253 148.517 20.2663C148.718 20.2703 148.806 20.1973 148.879 20.0169C149.604 18.2073 149.835 16.3376 149.55 14.4111C148.815 9.44632 144.718 5.69327 139.683 5.35998C135.363 5.07411 131.283 7.42757 129.411 11.3341C128.053 14.1668 127.972 17.0646 129.122 19.9902C129.164 20.0958 129.28 20.2461 129.366 20.2486C130.072 20.2695 130.779 20.2605 131.535 20.2605ZM131.426 23.4647C135.737 27.9046 142.809 27.5074 146.549 23.4647C146.027 23.4647 145.542 23.4659 145.056 23.4644C143.898 23.4607 143.262 22.8227 143.262 21.6623C143.261 20.0792 143.261 18.4959 143.261 16.9127C143.261 16.8036 143.261 16.6946 143.261 16.5206C143.123 16.6384 143.037 16.7065 142.956 16.7812C142.041 17.6317 141.126 18.484 140.21 19.3342C139.431 20.0577 138.569 20.0583 137.795 19.3391C136.872 18.4809 135.95 17.6223 135.026 16.7648C134.949 16.6931 134.866 16.6279 134.739 16.5204C134.739 16.709 134.739 16.8224 134.739 16.9359C134.739 18.5088 134.739 20.0816 134.738 21.6544C134.738 22.8319 134.104 23.462 132.92 23.4645C132.445 23.4656 131.969 23.4647 131.426 23.4647ZM132.604 11.6891C132.604 11.9121 132.604 12.0346 132.604 12.1572C132.604 14.7714 132.605 17.3856 132.604 19.9998C132.604 20.9537 132.232 21.3276 131.286 21.3281C130.802 21.3284 130.319 21.3281 129.76 21.3281C129.987 21.6683 130.156 21.9531 130.36 22.2104C130.436 22.3056 130.592 22.3849 130.713 22.3877C131.432 22.4041 132.15 22.3962 132.869 22.3958C133.533 22.3954 133.672 22.2554 133.672 21.5868C133.672 19.6914 133.674 17.7958 133.67 15.9002C133.669 15.6028 133.726 15.3421 133.982 15.1587C134.309 14.9241 134.664 14.9724 135.022 15.3047C136.197 16.3964 137.371 17.4895 138.546 18.5809C138.874 18.8857 139.117 18.8883 139.444 18.5908C139.706 18.3524 139.964 18.1097 140.223 17.8685C141.153 17.0029 142.081 16.135 143.014 15.2722C143.416 14.9002 143.942 14.9276 144.193 15.3556C144.291 15.5225 144.322 15.7492 144.323 15.9491C144.332 17.8654 144.327 19.7818 144.329 21.6982C144.33 22.217 144.506 22.3931 145.023 22.395C145.773 22.3979 146.523 22.3983 147.273 22.3928C147.37 22.3921 147.51 22.3832 147.556 22.3221C147.785 22.0214 147.989 21.7018 148.242 21.328C147.617 21.328 147.078 21.3483 146.542 21.3187C146.304 21.3056 146.044 21.2365 145.842 21.1139C145.481 20.8941 145.394 20.5162 145.394 20.1085C145.397 17.4527 145.396 14.7967 145.396 12.1408C145.396 12.0216 145.396 11.9025 145.396 11.703C145.231 11.8437 145.129 11.9264 145.032 12.0137C143.312 13.5582 141.592 15.1034 139.872 16.648C139.256 17.2009 138.749 17.2034 138.14 16.6569C136.799 15.4533 135.46 14.2487 134.119 13.0449C133.641 12.6154 133.161 12.1873 132.604 11.6891Z" fill="#FFB800"/>
<path fillRule="evenodd" clipRule="evenodd" d="M138.999 2.11487C139.358 2.1357 139.721 2.15129 140.084 2.17946C140.413 2.20496 140.625 2.42257 140.621 2.71286C140.617 3.01215 140.376 3.23959 140.042 3.24176C139.356 3.24618 138.67 3.24543 137.985 3.24051C137.643 3.23809 137.409 3.02031 137.402 2.71561C137.396 2.42499 137.606 2.20463 137.934 2.17846C138.286 2.15029 138.64 2.1357 138.999 2.11487Z" fill="#FFB800"/>
<path fillRule="evenodd" clipRule="evenodd" d="M133.814 27.9435C133.807 28.4237 133.424 28.702 133.085 28.5254C132.414 28.1755 131.76 27.7887 131.116 27.3906C130.86 27.2327 130.833 26.9082 130.996 26.6722C131.151 26.4476 131.436 26.3706 131.687 26.5118C132.311 26.8635 132.936 27.2156 133.545 27.5935C133.685 27.6804 133.76 27.8706 133.814 27.9435Z" fill="#FFB800"/>
<path fillRule="evenodd" clipRule="evenodd" d="M133.81 4.07772C133.747 4.15231 133.652 4.33634 133.501 4.42976C132.919 4.79064 132.319 5.12452 131.724 5.46448C131.443 5.62466 131.143 5.55741 130.985 5.30879C130.824 5.05634 130.874 4.74522 131.154 4.57453C131.774 4.19624 132.402 3.82694 133.045 3.48931C133.418 3.29329 133.82 3.56482 133.81 4.07772Z" fill="#FFB800"/>
<path fillRule="evenodd" clipRule="evenodd" d="M144.766 3.42542C144.821 3.44308 144.927 3.4595 145.014 3.50884C145.609 3.84513 146.207 4.17776 146.791 4.5333C147.12 4.734 147.189 5.06078 147.001 5.32849C146.821 5.58602 146.528 5.61444 146.202 5.42258C145.64 5.09137 145.075 4.76425 144.507 4.44362C144.247 4.29669 144.125 4.08733 144.206 3.79963C144.275 3.55468 144.458 3.42817 144.766 3.42542Z" fill="#FFB800"/>
<path fillRule="evenodd" clipRule="evenodd" d="M151.571 10.2775C151.562 10.5245 151.441 10.6904 151.213 10.7747C150.978 10.8616 150.756 10.8004 150.634 10.599C150.236 9.9428 149.853 9.27705 149.487 8.60305C149.362 8.37286 149.466 8.15025 149.67 8.00131C149.89 7.84071 150.178 7.82287 150.318 8.04007C150.758 8.72765 151.15 9.44699 151.557 10.1557C151.576 10.1886 151.567 10.2373 151.571 10.2775Z" fill="#FFB800"/>
<path fillRule="evenodd" clipRule="evenodd" d="M125.117 15.9743C125.139 15.6158 125.154 15.2626 125.183 14.9105C125.209 14.6042 125.429 14.3978 125.707 14.3991C126.001 14.4004 126.237 14.6252 126.24 14.9392C126.249 15.6451 126.249 16.3513 126.242 17.0573C126.239 17.3593 126.022 17.5808 125.743 17.5979C125.452 17.6157 125.21 17.4053 125.184 17.0903C125.153 16.7177 125.138 16.3435 125.117 15.9743Z" fill="#FFB800"/>
<path fillRule="evenodd" clipRule="evenodd" d="M128.594 23.6533C128.484 23.7734 128.375 23.9557 128.214 24.0502C128.008 24.1717 127.755 24.1149 127.63 23.9116C127.223 23.2491 126.829 22.5769 126.461 21.8915C126.329 21.6443 126.482 21.3576 126.73 21.2397C126.968 21.1265 127.246 21.186 127.387 21.4223C127.767 22.0544 128.13 22.6961 128.495 23.3366C128.535 23.4062 128.545 23.4926 128.594 23.6533Z" fill="#FFB800"/>
<path fillRule="evenodd" clipRule="evenodd" d="M151.57 21.7766C151.548 21.839 151.525 21.9535 151.47 22.0499C151.143 22.6276 150.819 23.2068 150.474 23.7736C150.27 24.1092 149.955 24.1873 149.684 24.0098C149.408 23.8296 149.379 23.5343 149.582 23.1898C149.915 22.6276 150.236 22.0588 150.564 21.4938C150.705 21.2515 150.912 21.1317 151.19 21.2149C151.433 21.2877 151.563 21.4659 151.57 21.7766Z" fill="#FFB800"/>
<path fillRule="evenodd" clipRule="evenodd" d="M152.882 16.1195C152.859 16.4849 152.846 16.786 152.819 17.0859C152.79 17.4024 152.555 17.613 152.264 17.5982C151.985 17.5842 151.763 17.3639 151.76 17.063C151.751 16.3576 151.752 15.6519 151.759 14.9465C151.763 14.6299 151.992 14.4053 152.286 14.4025C152.567 14.3998 152.793 14.6033 152.816 14.9076C152.848 15.3319 152.863 15.7577 152.882 16.1195Z" fill="#FFB800"/>
<path fillRule="evenodd" clipRule="evenodd" d="M147.178 26.9873C147.04 27.1683 146.96 27.3567 146.818 27.4446C146.217 27.8154 145.604 28.1678 144.984 28.5033C144.678 28.6687 144.378 28.5565 144.242 28.2774C144.111 28.0093 144.208 27.7333 144.496 27.5659C145.08 27.2269 145.656 26.8736 146.255 26.5629C146.413 26.4807 146.665 26.4739 146.831 26.5404C146.971 26.5969 147.048 26.8094 147.178 26.9873Z" fill="#FFB800"/>
<path fillRule="evenodd" clipRule="evenodd" d="M127.053 10.813C126.578 10.8014 126.298 10.4181 126.473 10.0818C126.822 9.41151 127.208 8.75918 127.606 8.11602C127.763 7.86199 128.089 7.83582 128.324 7.9975C128.546 8.15044 128.625 8.43839 128.485 8.687C128.134 9.31042 127.782 9.93383 127.405 10.5414C127.318 10.6814 127.128 10.7574 127.053 10.813Z" fill="#FFB800"/>
<path fillRule="evenodd" clipRule="evenodd" d="M138.765 28.8176C139.149 28.7987 139.532 28.7789 139.916 28.7612C140.325 28.7422 140.584 28.9386 140.596 29.2736C140.607 29.5933 140.382 29.8135 139.981 29.8214C139.307 29.8348 138.633 29.8327 137.959 29.8179C137.612 29.8102 137.394 29.5766 137.403 29.2764C137.413 28.9602 137.658 28.752 138.018 28.7588C138.143 28.7612 138.267 28.7777 138.391 28.7852C138.516 28.7928 138.64 28.7973 138.764 28.8033C138.765 28.8081 138.765 28.8128 138.765 28.8176Z" fill="#FFB800"/>
</svg>
