<svg width="68" height="68" viewBox="0 0 68 68" fill="none" xmlns="http://www.w3.org/2000/svg">
<path fillRule="evenodd" clipRule="evenodd" d="M0 24.4375C0.26112 23.0094 0.403715 21.547 0.803612 20.1591C2.67578 13.6608 6.68172 8.94103 13.0012 6.47715C19.9225 3.77848 26.4475 4.82653 32.4319 9.21749C32.9642 9.60819 33.4458 10.068 33.9881 10.5271C34.184 10.3696 34.3741 10.2272 34.5529 10.0718C38.9602 6.23738 44.0837 4.57598 49.8824 5.18053C54.8024 5.6936 58.965 7.8425 62.3407 11.4506C65.6414 14.9785 67.4789 19.1803 67.9049 23.997C67.918 24.1456 67.9675 24.2909 68 24.4377C68 25.3233 68 26.2088 68 27.0945C67.888 27.6064 67.7809 28.1191 67.6632 28.6295C66.789 32.4234 64.8018 35.6501 62.4868 38.6986C58.646 43.7565 53.9908 48.0099 49.1507 52.0712C44.6879 55.8161 39.9829 59.2371 35.1473 62.4833C34.3308 63.0314 33.6697 63.0304 32.8532 62.4827C24.5993 56.945 16.7514 50.9079 9.83559 43.734C6.70812 40.4895 3.8836 37.0027 1.8793 32.924C1.01676 31.169 0.365867 29.3425 0.120019 27.3887C0.107237 27.2873 0.0411684 27.1924 0 27.0946C0 26.2086 0 25.3232 0 24.4375ZM20.4771 7.69788C20.4652 7.63628 20.453 7.57468 20.4409 7.51308C18.7296 7.82241 16.9675 7.96537 15.3165 8.47163C9.86132 10.144 6.10105 13.7479 3.96478 19.0128C1.90171 24.0968 2.33066 28.9651 5.26971 33.6519C7.19898 36.7284 9.47154 39.5127 11.9777 42.1107C18.476 48.8469 25.8561 54.5124 33.5683 59.7692C33.8943 59.9916 34.1155 59.9848 34.4365 59.7656C42.1264 54.5168 49.4963 48.8743 55.9812 42.1551C58.5816 39.4607 61.0113 36.6194 62.8865 33.3517C64.219 31.0295 65.3282 28.6088 65.327 25.8716C65.3251 20.894 63.6262 16.5402 60.1393 12.978C53.3304 6.02186 42.5379 5.94084 35.5987 12.7318C34.1707 14.1292 33.8279 14.1295 32.3973 12.7274C29.0851 9.48067 25.0966 7.84035 20.4771 7.69788Z" fill="white"/>
<path fillRule="evenodd" clipRule="evenodd" d="M60.9583 24.7764C60.8831 26.0448 60.4838 26.6583 59.6089 26.6988C58.7189 26.74 58.2407 26.1195 58.1887 24.8558C58.0142 20.6055 55.3023 16.8743 51.3134 15.3967C50.2631 15.0077 49.8508 14.3057 50.2027 13.5054C50.5138 12.7977 51.1815 12.54 52.0495 12.8475C56.2201 14.3244 58.9296 17.2323 60.2656 21.4122C60.6122 22.4967 60.7334 23.653 60.9583 24.7764Z" fill="white"/>
<path fillRule="evenodd" clipRule="evenodd" d="M45.0207 13.6839C45.0325 12.9686 45.6123 12.3937 46.3281 12.3873C47.0668 12.3806 47.6805 12.9938 47.6669 13.7252C47.6533 14.4571 47.0287 15.0375 46.28 15.0142C45.5536 14.9917 45.0086 14.4156 45.0207 13.6839Z" fill="white"/>
</svg>
