<svg width="68" height="68" viewBox="0 0 68 68" fill="none" xmlns="http://www.w3.org/2000/svg">
<path fill-rule="evenodd" clip-rule="evenodd" d="M0.000177008 42.1882C0.349959 41.4048 0.971066 40.9816 1.78628 40.7623C2.55297 40.556 3.30195 40.2839 4.05925 40.0427C5.24443 39.6651 6.2093 40.0656 6.56156 41.0795C6.91294 42.0908 6.38552 43.0252 5.21946 43.4245C4.42585 43.6964 3.62463 43.9463 2.82606 44.204C1.34175 44.6829 0.754999 44.4567 0 43.1176C0.000177105 42.808 0.000177008 42.4979 0.000177008 42.1882Z" fill="white"/>
<path fill-rule="evenodd" clip-rule="evenodd" d="M68.0001 43.1177C67.2462 44.4575 66.6578 44.685 65.1748 44.2065C64.3344 43.9355 63.4893 43.677 62.6558 43.3854C61.6247 43.025 61.1226 42.0981 61.4122 41.1451C61.7081 40.1703 62.6861 39.6643 63.7517 39.981C64.746 40.2764 65.7628 40.542 66.6975 40.9763C67.209 41.214 67.571 41.7736 68.0001 42.188C68.0001 42.4978 68.0001 42.8079 68.0001 43.1177Z" fill="white"/>
<path fill-rule="evenodd" clip-rule="evenodd" d="M64.0596 23.9159C64.0681 25.2561 63.532 26.3503 62.5813 27.2744C59.1386 30.6213 55.7068 33.9798 52.2602 37.3228C51.831 37.7388 51.6291 38.1407 51.742 38.7805C52.5937 43.6127 53.4144 48.4505 54.2244 53.2899C54.5172 55.0398 53.9156 56.493 52.5248 57.559C51.1079 58.6452 49.5113 58.8361 47.9032 58.0409C45.7647 56.983 43.6679 55.8405 41.5547 54.7317C39.3044 53.5508 37.049 52.3792 34.8114 51.1745C34.2456 50.8697 33.7741 50.8688 33.1999 51.1736C28.9261 53.444 24.6458 55.7028 20.3497 57.9314C17.4183 59.4522 14.0186 57.6736 13.7492 54.42C13.6603 53.3448 13.9485 52.2285 14.1311 51.1423C14.8349 46.9575 15.5599 42.7764 16.2931 38.5967C16.3932 38.0259 16.1083 37.6821 15.7475 37.3311C12.3384 34.0131 8.94506 30.6785 5.52127 27.3757C4.11275 26.0169 3.56373 24.421 4.16252 22.5606C4.7707 20.6708 6.16947 19.7145 8.1387 19.4419C12.8681 18.7873 17.5874 18.0609 22.3144 17.388C22.9156 17.3025 23.2504 17.0143 23.5065 16.4915C25.6356 12.1463 27.7745 7.80559 29.9246 3.47059C30.9564 1.39031 33.0866 0.416767 35.2381 1.03238C36.5963 1.42095 37.5146 2.31533 38.1327 3.57597C40.2338 7.86138 42.3648 12.1323 44.4587 16.4212C44.7525 17.023 45.1306 17.3053 45.8054 17.3999C50.5775 18.0683 55.3432 18.782 60.1123 19.4734C62.4189 19.8083 64.0472 21.6313 64.0596 23.9159ZM19.9169 38.3663C19.901 38.5071 19.8848 38.7504 19.8443 38.9895C19.0227 43.8275 18.2027 48.6658 17.3675 53.5015C17.2876 53.9629 17.2318 54.3833 17.6464 54.7081C18.0966 55.0613 18.5135 54.8535 18.9382 54.63C23.1234 52.4272 27.3224 50.2504 31.4918 48.0183C33.1789 47.1149 34.7824 47.0946 36.4734 47.9982C40.6642 50.2375 44.8806 52.4291 49.0848 54.6431C49.4888 54.8557 49.8894 55.0507 50.3216 54.7338C50.7417 54.4262 50.7247 54.0137 50.6427 53.5421C49.8298 48.8819 49.0599 44.2143 48.2236 39.5586C47.8759 37.6237 48.3801 36.0643 49.8018 34.7015C53.2206 31.4247 56.59 28.0963 59.9869 24.7965C60.4107 24.3847 60.6994 23.9244 60.2735 23.4193C60.0643 23.1714 59.6375 23.0395 59.2895 22.9874C54.6539 22.2951 50.0193 21.5946 45.3747 20.9666C43.4529 20.7068 42.1128 19.8053 41.2637 18.0513C39.3577 14.1132 37.4 10.1999 35.4626 6.27664C35.2572 5.86062 35.0969 5.41042 34.8251 5.0431C34.6375 4.78949 34.2868 4.49124 34.0228 4.50364C33.7228 4.51763 33.4243 4.83908 33.153 5.06081C33.0439 5.15008 33.0081 5.32948 32.9396 5.46798C30.8563 9.68892 28.761 13.9038 26.6961 18.1336C25.9273 19.7086 24.7258 20.657 22.9948 20.9131C20.5015 21.2822 18.0059 21.6345 15.5119 21.997C13.149 22.3402 10.7855 22.6792 8.42508 23.0382C7.68408 23.1509 7.32455 23.7268 7.61377 24.3052C7.71844 24.5146 7.91431 24.6837 8.08699 24.8523C11.4918 28.1759 14.8928 31.5029 18.3102 34.8134C19.2951 35.7675 19.8769 36.8816 19.9169 38.3663Z" fill="white"/>
<path fill-rule="evenodd" clip-rule="evenodd" d="M35.7604 64.488C35.7604 65.0837 35.8068 65.6843 35.7498 66.2748C35.6602 67.2009 34.9102 67.8324 33.9947 67.8301C33.0831 67.828 32.3019 67.1888 32.2539 66.2633C32.1912 65.0522 32.1914 63.8332 32.2506 62.622C32.2961 61.6902 33.0642 61.0463 33.9736 61.0357C34.9213 61.0247 35.6717 61.6667 35.756 62.634C35.8097 63.2475 35.7661 63.8695 35.7661 64.4876C35.7643 64.4878 35.7626 64.4878 35.7604 64.488Z" fill="white"/>
<path fill-rule="evenodd" clip-rule="evenodd" d="M14.3861 2.98669C14.6459 3.16061 15.1958 3.38713 15.5412 3.78933C16.2301 4.59144 16.8264 5.47679 17.4245 6.35275C18.0311 7.24093 17.8464 8.2878 17.0253 8.87561C16.2278 9.44642 15.1886 9.29588 14.5535 8.46756C13.8814 7.59089 13.236 6.69226 12.611 5.78123C12.2013 5.18403 12.1969 4.52804 12.5534 3.89932C12.8848 3.31487 13.42 3.04 14.3861 2.98669Z" fill="white"/>
<path fill-rule="evenodd" clip-rule="evenodd" d="M55.7545 4.84647C55.6052 5.20635 55.5099 5.60236 55.2967 5.91902C54.7294 6.76222 54.1239 7.5808 53.5101 8.39141C52.8236 9.29818 51.779 9.48343 50.9514 8.87419C50.1096 8.2545 49.9614 7.2195 50.6137 6.29147C51.2366 5.40542 51.8667 4.52272 52.5372 3.67297C53.0386 3.0377 53.7871 2.86856 54.5073 3.13334C55.2317 3.39952 55.6764 4.03923 55.7545 4.84647Z" fill="white"/>
</svg>
