<svg width="32" height="32" viewBox="0 0 32 32" fill="none" xmlns="http://www.w3.org/2000/svg">
<circle cx="15.9999" cy="16" r="16" fill="#C35C6C"/>
<path fill-rule="evenodd" clip-rule="evenodd" d="M16.1078 17.4486C16.7337 15.8508 17.342 14.2976 17.9507 12.7445C18.255 11.9678 18.5593 11.1911 18.865 10.4149C18.9992 10.0744 19.1059 10.0025 19.4748 10.0022C20.6897 10.0015 21.9046 10.0042 23.1195 10C23.3608 9.99914 23.5706 10.041 23.6737 10.2877C23.7768 10.5346 23.6589 10.717 23.4887 10.885C23.1252 11.2437 22.7584 11.5996 22.4092 11.9719C22.3257 12.061 22.2672 12.2084 22.2631 12.3311C22.2468 12.8258 22.2573 13.3214 22.2554 13.8166C22.2551 13.9011 22.2501 13.987 22.234 14.0697C22.1866 14.3132 21.9876 14.4741 21.7624 14.4588C21.5283 14.4428 21.3399 14.2689 21.3364 14.0191C21.3263 13.3152 21.323 12.6108 21.3416 11.9072C21.345 11.7786 21.4433 11.6346 21.5346 11.5299C21.7046 11.3351 21.9015 11.1638 22.0623 10.9307C22.0121 10.9307 21.962 10.9307 21.9117 10.9307C21.223 10.9307 20.5343 10.9339 19.8456 10.9279C19.7115 10.9267 19.6391 10.9615 19.589 11.0953C19.3747 11.6667 19.1458 12.2324 18.9279 12.8024C18.8959 12.8862 18.8807 12.9817 18.8807 13.0717C18.8783 15.6872 18.8764 18.3027 18.8826 20.9182C18.8833 21.1743 18.8205 21.3827 18.642 21.5684C18.4562 21.7617 18.2884 21.9725 18.0898 22.2022C19.433 22.2022 20.7395 22.2022 22.0857 22.2022C21.8838 21.9789 21.6878 21.7927 21.5312 21.5777C21.4328 21.4426 21.3416 21.2659 21.3367 21.105C21.3157 20.417 21.323 19.7279 21.33 19.0392C21.3338 18.6705 21.5946 18.4594 21.9156 18.5471C22.1316 18.6061 22.2347 18.7658 22.2462 18.9731C22.2621 19.2585 22.2543 19.5452 22.2562 19.8314C22.2569 19.9398 22.2715 20.0507 22.2537 20.156C22.1492 20.7757 22.3647 21.2577 22.8393 21.6583C23.0621 21.8464 23.2387 22.0889 23.4373 22.3056C23.5894 22.4716 23.6719 22.6554 23.566 22.8754C23.4671 23.0807 23.2895 23.1475 23.0696 23.1474C21.0886 23.1452 19.1076 23.1454 17.1267 23.147C16.9066 23.1472 16.7275 23.0787 16.6352 22.8689C16.5437 22.6607 16.6098 22.4804 16.7549 22.3157C17.1182 21.9035 17.4803 21.4903 17.8348 21.0709C17.8939 21.001 17.945 20.8973 17.9453 20.8091C17.9517 19.0371 17.9501 17.2651 17.9497 15.493C17.9497 15.4655 17.9455 15.4379 17.9383 15.3505C17.8825 15.4784 17.8475 15.5517 17.8179 15.6273C16.8999 17.9721 15.9822 20.317 15.0645 22.6618C15.0476 22.705 15.031 22.7482 15.0138 22.7913C14.9292 23.0036 14.7841 23.136 14.5457 23.1452C14.3 23.1546 14.1382 23.0387 14.0352 22.8191C13.5958 21.8817 13.1526 20.9461 12.712 20.0093C11.9952 18.4851 11.2794 16.9605 10.5627 15.4363C10.531 15.369 10.4944 15.3039 10.426 15.1719C10.4159 15.3103 10.4062 15.3813 10.4062 15.4522C10.4053 16.7909 10.4013 18.1297 10.4121 19.4683C10.4132 19.5995 10.4766 19.7543 10.5611 19.8571C11.2241 20.664 11.8995 21.4608 12.571 22.2608C12.6008 22.2964 12.6301 22.3324 12.6588 22.3689C12.7844 22.5288 12.819 22.7038 12.7253 22.8885C12.6368 23.0632 12.4847 23.1454 12.2904 23.1454C10.766 23.146 9.24155 23.1461 7.71718 23.145C7.51407 23.1448 7.35981 23.0565 7.27085 22.8695C7.1744 22.667 7.24543 22.4944 7.37316 22.3336C8.02766 21.5099 8.68593 20.6891 9.33173 19.8586C9.41356 19.7534 9.46979 19.5972 9.47037 19.4644C9.47902 17.4526 9.47913 15.4406 9.47002 13.4287C9.46944 13.298 9.40891 13.1401 9.32279 13.0415C8.72238 12.3538 8.10781 11.6784 7.49788 10.999C7.45133 10.9472 7.40346 10.8965 7.35935 10.8427C7.23214 10.6875 7.18171 10.5167 7.27276 10.3263C7.3619 10.1398 7.51714 10.0535 7.72067 10.0535C9.26052 10.0529 10.8004 10.0535 12.3404 10.0526C12.6016 10.0524 12.7446 10.2002 12.847 10.4226C13.3996 11.6226 13.9567 12.8205 14.5123 14.0191C15.0029 15.0775 15.4936 16.1359 15.9845 17.1942C16.0163 17.2629 16.0505 17.3306 16.1078 17.4486ZM14.4882 21.5814C14.8703 20.6065 15.2406 19.6684 15.601 18.7266C15.6256 18.6623 15.5925 18.5624 15.5596 18.4914C14.4292 16.0453 13.2944 13.6012 12.1659 11.1542C12.1047 11.0215 12.036 10.9768 11.8909 10.9778C10.9088 10.9846 9.92663 10.981 8.94447 10.9821C8.8887 10.9821 8.83293 10.9934 8.75064 11.0024C9.22239 11.5282 9.67726 12.0239 10.1174 12.5322C10.2567 12.6932 10.3806 12.8768 10.4714 13.069C11.7746 15.8264 13.0708 18.5872 14.3691 21.3469C14.4012 21.415 14.4372 21.4812 14.4882 21.5814ZM8.66382 22.2035C9.56555 22.2035 10.4171 22.2035 11.3088 22.2035C10.843 21.6486 10.4009 21.1219 9.95002 20.5847C9.51552 21.1316 9.10018 21.6543 8.66382 22.2035Z" fill="white"/>
<path fill-rule="evenodd" clip-rule="evenodd" d="M21.7883 17.0605C21.5413 17.0603 21.3335 16.8495 21.3337 16.5992C21.3339 16.3489 21.5421 16.1383 21.789 16.1385C22.0336 16.1387 22.247 16.3537 22.2468 16.5998C22.2466 16.8459 22.0328 17.0606 21.7883 17.0605Z" fill="white"/>
</svg>
