<svg width="32" height="32" viewBox="0 0 32 32" fill="none" xmlns="http://www.w3.org/2000/svg">
<circle cx="15.9999" cy="16.0001" r="16" fill="#C35C6C"/>
<path fill-rule="evenodd" clip-rule="evenodd" d="M24.1317 11.7511C23.9724 12.0548 23.8302 12.3693 23.6486 12.6589C23.4799 12.9277 23.2323 13.1307 22.9528 13.2844C22.8565 13.3373 22.8195 13.3964 22.8189 13.5084C22.8104 15.0079 22.4943 16.4397 21.8277 17.7846C20.8427 19.772 19.3672 21.2583 17.3047 22.1241C16.2942 22.5483 15.2363 22.7288 14.1404 22.7087C13.2715 22.6928 12.4051 22.6483 11.5465 22.5103C10.7084 22.3757 9.88048 22.198 9.1212 21.7952C8.89475 21.6751 8.66277 21.5566 8.52423 21.3229C8.52423 21.2619 8.52423 21.201 8.52423 21.1399C8.60481 20.9438 8.75076 20.8608 8.9629 20.8548C9.7116 20.8335 10.4526 20.7476 11.1616 20.4931C11.5118 20.3673 11.8487 20.2044 12.1917 20.0583C12.1873 20.04 12.1828 20.0217 12.1784 20.0034C12.0652 19.9833 11.9518 19.9646 11.839 19.9428C10.5985 19.7039 9.77853 18.9783 9.35242 17.7956C9.3027 17.6577 9.31289 17.5364 9.4264 17.4351C9.53148 17.3413 9.7026 17.3205 9.83904 17.4039C10.0909 17.5578 10.3623 17.6472 10.6535 17.6793C10.7739 17.6926 10.8954 17.6961 11.0321 17.6745C10.9948 17.6483 10.9582 17.6211 10.9202 17.5959C10.0764 17.036 9.41842 16.3129 8.99197 15.3893C8.9178 15.2287 8.85988 15.0601 8.80177 14.8926C8.75285 14.7517 8.77361 14.6195 8.89429 14.5204C9.00345 14.4307 9.15428 14.4296 9.28889 14.5321C9.57215 14.7477 9.88128 14.9025 10.2312 14.9726C10.2601 14.9783 10.2898 14.98 10.348 14.9871C9.05878 13.5681 8.7899 12.0409 9.77643 10.3361C10.8806 11.5588 12.145 12.5374 13.7156 13.0713C14.4361 13.3161 15.1713 13.5001 15.9022 13.6409C15.9527 13.3061 15.979 12.9759 16.0547 12.6574C16.3886 11.2517 17.5503 10.2094 18.9754 10.0199C19.5545 9.94292 20.0929 10.0986 20.6149 10.3249C20.8937 10.4458 21.1619 10.5912 21.4395 10.7152C21.5048 10.7444 21.5988 10.7581 21.6628 10.734C22.2367 10.5181 22.8069 10.2921 23.3781 10.069C23.4206 10.0524 23.4644 10.0167 23.5045 10.0207C23.6047 10.0308 23.7177 10.0352 23.7986 10.0854C23.8958 10.1458 23.9129 10.2676 23.8588 10.373C23.6954 10.6922 23.5261 11.0085 23.3552 11.3237C23.3225 11.3841 23.272 11.4348 23.2017 11.5266C23.3722 11.4691 23.5001 11.426 23.6279 11.3827C23.8804 11.2971 23.999 11.3407 24.1318 11.5683C24.1317 11.6292 24.1317 11.6901 24.1317 11.7511ZM9.94401 11.2609C9.74949 11.6774 9.67334 12.2419 9.73183 12.6694C9.84167 13.4726 10.2471 14.1177 10.8273 14.6541C11.1391 14.9423 11.4947 15.183 11.8304 15.4453C11.8694 15.4757 11.9081 15.5065 11.9736 15.5584C11.1302 15.5624 10.3269 15.6032 9.55475 15.3004C10.1613 16.4572 11.0754 17.2548 12.3051 17.6865C12.2824 17.8404 12.2669 17.9818 12.2376 18.1203C12.2302 18.1554 12.179 18.207 12.1472 18.2074C11.6403 18.2149 11.1331 18.2234 10.6264 18.2131C10.4473 18.2096 10.2692 18.1565 10.0784 18.1239C10.094 18.1596 10.1022 18.1881 10.1175 18.2121C10.1748 18.3019 10.2306 18.393 10.2938 18.4786C10.6965 19.0237 11.2582 19.3145 11.9077 19.4244C12.3207 19.4942 12.7447 19.5028 13.1643 19.5291C13.3635 19.5415 13.5642 19.5312 13.7734 19.5312C12.5371 20.6091 11.1443 21.2781 9.49317 21.379C9.92195 21.5487 10.3452 21.7039 10.7804 21.8096C12.0164 22.1095 13.2764 22.1952 14.5444 22.1756C15.4425 22.1618 16.3088 21.9755 17.1331 21.6228C19.2114 20.7336 20.6399 19.196 21.5388 17.146C22.096 15.8752 22.3166 14.536 22.2945 13.1537C22.2926 13.0365 22.3193 12.9781 22.4405 12.9363C22.8894 12.7813 23.1841 12.4536 23.424 12.016C23.3424 12.0421 23.2954 12.0566 23.2488 12.0721C22.9697 12.1648 22.6916 12.2609 22.4112 12.3492C22.282 12.3899 22.1577 12.3815 22.0758 12.25C22.0015 12.1306 22.0184 11.9809 22.1182 11.8709C22.1454 11.841 22.1778 11.8158 22.207 11.7876C22.3569 11.6432 22.5163 11.5073 22.6537 11.3519C22.8114 11.1735 22.9496 10.9777 23.0962 10.7894C22.6553 10.9179 22.2406 11.0657 21.8318 11.2284C21.5947 11.3227 21.3809 11.2973 21.1615 11.179C20.9296 11.0539 20.6923 10.9378 20.4524 10.8288C20.1332 10.6836 19.8062 10.5514 19.451 10.5351C18.1428 10.4749 16.8987 11.4349 16.5715 12.7373C16.461 13.1774 16.4681 13.6224 16.4671 14.0688C16.4669 14.137 16.4671 14.2052 16.4671 14.2802C13.9944 13.893 11.7116 13.1519 9.94401 11.2609Z" fill="white"/>
</svg>
