<svg width="90" height="90" viewBox="0 0 90 90" fill="none" xmlns="http://www.w3.org/2000/svg">
<g clip-path="url(#clip0_5:696)">
<path fill-rule="evenodd" clip-rule="evenodd" d="M21.4256 8.63642C21.3939 8.73454 21.305 8.9402 21.228 9.09378L21.0881 9.37264L21.2267 9.59267C21.303 9.71369 26.5153 17.7032 32.8097 27.347C39.1041 36.9908 44.255 44.9138 44.2561 44.9535C44.2575 44.9933 44.1011 45.2665 43.9087 45.5611C43.7163 45.8554 43.5742 46.1116 43.5928 46.1303C43.6117 46.1489 44.2165 46.1718 44.937 46.1812L46.2469 46.1981L45.9058 45.6909C45.5699 45.1911 45.5661 45.1817 45.6437 45.0633C45.7917 44.8379 68.3622 10.9079 68.7854 10.2748L69.2068 9.64409L69.0756 9.36994C69.0034 9.21929 68.9065 8.95772 68.8601 8.7891L68.776 8.48217L45.1298 8.47027L21.4836 8.45837L21.4256 8.63642ZM61.7922 13.9348C58.5072 18.8932 45.1246 38.9982 45.0733 39.0519C45.0229 39.1047 27.5238 12.4125 27.5238 12.2829C27.5238 12.2701 35.4838 12.2598 45.2128 12.2598H62.9019L61.7922 13.9348ZM42.7434 47.3501L42.5297 47.6849L42.8244 47.7273C43.1788 47.7781 47.1679 47.7947 47.2171 47.7453C47.2362 47.7264 47.1649 47.5787 47.0585 47.4172L46.8652 47.1238L45.1827 47.1112C44.2572 47.1045 43.3779 47.08 43.2285 47.0569L42.9574 47.0151L42.7434 47.3501ZM41.2971 49.5738C41.249 49.6338 21.3414 80.1413 21.0838 80.5501L20.9452 80.7702L21.0852 81.049C21.1621 81.2024 21.251 81.4081 21.2829 81.5062L21.3408 81.6844L44.9851 81.6725L68.6297 81.6607L68.7343 81.3041C68.7919 81.1081 68.8876 80.8548 68.9467 80.7412C69.0059 80.6276 69.0446 80.51 69.0329 80.4799C69.0009 80.3979 48.5734 49.691 48.5008 49.6158C48.4477 49.561 48.321 49.561 47.6833 49.6158C46.5876 49.7099 43.3759 49.6966 42.2878 49.5933C41.2942 49.4988 41.3563 49.5002 41.2971 49.5738ZM53.8585 64.4928L62.7489 77.859L45.0807 77.8711C35.3634 77.8776 27.4043 77.8745 27.3939 77.8642C27.3836 77.8538 31.3114 71.8116 36.1226 64.4371C42.1278 55.2318 44.8852 51.044 44.919 51.0777C44.946 51.1046 48.9688 57.1414 53.8585 64.4928Z" fill="#440C54"/>
<path fill-rule="evenodd" clip-rule="evenodd" d="M42.3333 0.386025C16.8732 1.9559 -2.11886 24.031 0.168489 49.3955C1.99909 69.6957 17.493 86.3141 37.6665 89.6151C40.0126 89.999 39.5491 89.9763 45.0238 89.9763C50.4983 89.9763 50.035 89.999 52.3809 89.6151C71.9736 86.4091 87.2374 70.605 89.7104 50.9636C89.9678 48.9195 89.9761 48.7419 89.9761 45.2613C89.9761 41.5246 89.9217 40.7066 89.4975 38.0698C85.8422 15.3517 65.3364 -1.0323 42.3333 0.386025ZM68.9022 8.76731C68.9456 8.92403 69.0387 9.17752 69.1092 9.33064C69.1798 9.48377 69.223 9.6333 69.2055 9.66316C69.1879 9.69303 64.2672 17.0949 58.2707 26.1114C52.274 35.1281 47.3341 42.5565 47.2929 42.6191L47.218 42.733L47.4543 42.6993C47.7706 42.6542 48.2287 42.4377 48.4719 42.2184L48.6702 42.0396L48.9366 42.0991C51.5205 42.6762 52.8144 44.1506 51.7536 45.3089C51.0149 46.1154 49.1679 46.8339 47.3571 47.0191C46.8085 47.0753 46.829 47.049 47.0598 47.3995C47.2983 47.7619 47.2464 47.7524 48.3705 47.6357C52.7665 47.179 56.7461 45.7025 57.1887 44.3637C57.5604 43.2397 54.0459 41.5868 49.9198 40.9449L49.2142 40.8351L49.6179 40.7751C50.5048 40.6431 51.2068 40.3157 51.7925 39.7603L52.1491 39.4224L52.7055 39.5566C55.9831 40.3476 58.4205 41.8322 58.9907 43.3845C59.9744 46.0622 55.9336 48.6184 49.4151 49.442C48.9494 49.5008 48.5586 49.5588 48.5466 49.5706C48.5347 49.5826 52.8129 56.0379 58.0533 63.9158C63.2938 71.7937 67.9223 78.7546 68.339 79.3844L69.0966 80.5295L68.9674 80.8099C68.8963 80.9641 68.8027 81.2185 68.7595 81.3755L68.6808 81.6606L44.9869 81.6725L21.2931 81.6844L21.2352 81.5061C21.2033 81.408 21.1167 81.2069 21.0424 81.0587L20.9074 80.7895L21.5194 79.8469C21.8562 79.3287 26.4413 72.2988 31.7088 64.2254C36.9762 56.1517 41.2753 49.5356 41.2623 49.5226C41.2494 49.5098 40.9441 49.4604 40.5841 49.4128C29.6583 47.9702 27.724 42.1126 37.3461 39.6078L38.1447 39.3999L38.2693 39.6458C38.5132 40.128 38.9958 40.6844 39.3819 40.9282C39.5784 41.0522 39.5532 41.0654 38.8334 41.2172C36.337 41.7428 34.3395 42.6016 33.3983 43.5538C32.8943 44.0637 32.8943 44.3208 33.3983 44.8307C34.7847 46.2333 37.8067 47.201 42.2988 47.6806C42.4719 47.6992 42.4856 47.6894 42.669 47.4202C42.9261 47.042 42.9408 46.996 42.8026 46.9953C42.5875 46.9947 41.2866 46.7107 40.8314 46.5652C37.2089 45.4073 37.3423 43.2043 41.0971 42.1773C41.6799 42.0179 41.6945 42.019 41.8061 42.2374C41.8578 42.3385 42.0075 42.5174 42.1386 42.6351L42.3774 42.8493L41.8196 42.9802C40.3947 43.3152 39.1428 43.9798 39.1428 44.4014C39.1428 44.9975 40.9936 45.7829 43.0573 46.0627L43.5197 46.1253L43.8977 45.5431L44.2757 44.9609L33.2446 28.052C27.1775 18.7522 21.9516 10.7407 21.6317 10.2485L21.0498 9.35377L21.1851 9.08434C21.2593 8.93615 21.3462 8.73453 21.3781 8.63641L21.4359 8.45836L45.1298 8.47026L68.8236 8.48216L68.9022 8.76731ZM27.5994 12.3905C27.7591 12.6314 44.5488 38.3664 44.7891 38.7387L45.0265 39.106L53.9298 25.7234C58.8267 18.3631 62.8404 12.3227 62.8492 12.3004C62.858 12.278 54.9252 12.2598 45.189 12.2598H27.5127L27.5994 12.3905ZM60.5333 13.816C60.2757 14.2015 56.6833 19.6018 52.5501 25.8166L45.0351 37.1163L44.8116 36.7696C44.6888 36.579 41.3023 31.3873 37.2861 25.2324C33.2698 19.0775 29.8485 13.8333 29.6831 13.5784L29.3825 13.1152H45.1919H61.0015L60.5333 13.816ZM33.8175 15.5307C33.8568 15.6295 45.0272 32.7356 45.0535 32.7378C45.0699 32.7392 45.5622 32.0187 46.1472 31.1365C46.7322 30.2546 49.3065 26.3822 51.8674 22.5316C54.4284 18.6808 56.5238 15.5215 56.5238 15.5107C56.5238 15.4999 51.4113 15.4912 45.1626 15.4912C38.9139 15.4912 33.8087 15.5089 33.8175 15.5307ZM55.7176 16.0019C55.5405 16.3109 45.0155 31.9506 44.9829 31.9531C44.9466 31.956 34.6189 16.0019 34.6189 15.9429C34.6189 15.9297 39.377 15.9186 45.1921 15.9186C55.2483 15.9186 55.7628 15.9229 55.7176 16.0019ZM46.4026 43.9535C45.9717 44.6064 45.6189 45.1542 45.6189 45.1713C45.6189 45.1882 45.753 45.4129 45.9166 45.6709L46.2143 46.1395L46.4523 46.139C48.2244 46.1356 51.1915 45.0745 51.1902 44.4447C51.189 43.8585 48.6576 42.7667 47.299 42.7667C47.2043 42.7667 47.0607 42.9566 46.4026 43.9535ZM36.1354 64.4486L27.3899 77.859L45.0362 77.8711C54.7416 77.8776 62.6904 77.8749 62.7003 77.8653C62.7129 77.8525 45.4187 51.8123 44.9376 51.1196C44.889 51.0498 43.6275 52.9601 36.1354 64.4486ZM52.9326 64.9964L60.889 76.9562L52.9922 76.9683C48.6488 76.9748 41.5415 76.9748 37.1979 76.9683L29.3006 76.9562L37.1146 64.9757C41.4123 58.3864 44.9392 53.0045 44.9523 53.016C44.9655 53.0272 48.5565 58.4185 52.9326 64.9964ZM43.6241 59.3626C43.4889 59.5782 43.4387 59.683 43.5127 59.5959C43.6461 59.4385 43.9287 58.9706 43.8903 58.9706C43.8792 58.9706 43.7595 59.1469 43.6241 59.3626ZM41.3876 62.7949C40.8694 63.5666 33.7142 74.5513 33.7142 74.5751C33.7142 74.591 38.8251 74.604 45.0713 74.604C51.3177 74.604 56.4286 74.5906 56.4286 74.574C56.4286 74.5192 48.503 62.6366 48.4773 62.653C48.4636 62.6618 47.713 63.8248 46.8094 65.2373C45.9058 66.65 45.1527 67.8065 45.1359 67.8072C45.1188 67.8081 44.3045 66.6271 43.3262 65.1828L41.5476 62.5567L41.3876 62.7949Z" fill="#BBABE3"/>
<path fill-rule="evenodd" clip-rule="evenodd" d="M37.2855 39.631C28.9153 41.8592 29.1032 46.7089 37.6428 48.8426C46.587 51.0775 58.409 48.7058 59.1047 44.5369C59.4296 42.5898 56.9811 40.662 52.8404 39.6045L52.1405 39.4258L51.9742 39.6198C51.49 40.1845 50.7129 40.5886 49.7618 40.7705C49.5129 40.8181 49.3631 40.8591 49.4286 40.8616C51.1415 40.9274 54.6947 42.0336 56.0728 42.9299C57.5654 43.9008 57.5654 44.4839 56.0728 45.4547C51.6599 48.3251 40.6632 48.6102 35.1561 45.997C33.9119 45.4067 33 44.6433 33 44.1922C33 43.282 35.6446 41.9018 38.6427 41.2474C39.0095 41.1672 39.3589 41.0909 39.4194 41.0774C39.5191 41.0552 39.5034 41.0334 39.2529 40.8486C38.8378 40.5426 38.4902 40.1272 38.2436 39.6425C38.1196 39.3988 38.1561 39.3993 37.2855 39.631ZM41.122 42.1773C35.6023 43.6879 38.4243 47.1382 45.1799 47.1384C51.9249 47.1387 54.7133 43.654 49.1561 42.1693L48.6694 42.0393L48.4584 42.2332C48.1987 42.4721 47.9384 42.608 47.5878 42.6875L47.3194 42.7483L47.7192 42.8089C49.443 43.0707 51.1903 43.8804 51.1903 44.417C51.1903 44.7434 50.3123 45.3083 49.2951 45.6364C46.1107 46.6638 40.8745 46.2132 39.3927 44.7843C39.0619 44.4655 39.0592 44.3503 39.3747 44.0467C39.8123 43.626 40.5998 43.2714 41.7003 43.0002L42.3294 42.8453L42.105 42.6248C41.9817 42.5033 41.8384 42.3253 41.7867 42.229C41.6771 42.0251 41.678 42.0253 41.122 42.1773Z" fill="#C35C6C"/>
<path fill-rule="evenodd" clip-rule="evenodd" d="M34.6189 15.943C34.6189 16.0021 44.9466 31.9561 44.9828 31.9532C45.0154 31.9507 55.5405 16.311 55.7176 16.0021C55.7628 15.923 55.2482 15.9188 45.1921 15.9188C39.3769 15.9188 34.6189 15.9298 34.6189 15.943ZM44.5182 57.9862C44.275 58.3578 43.9811 58.8329 43.8655 59.0419C43.7496 59.2509 43.5536 59.5504 43.4299 59.7072C43.1682 60.039 41.5714 62.4778 41.5714 62.5458C41.5714 62.6064 45.0962 67.8096 45.1358 67.8073C45.1639 67.806 48.4341 62.7252 48.4665 62.6329C48.4741 62.6107 47.6884 61.4039 46.7205 59.9514L44.9603 57.3106L44.5182 57.9862Z" fill="#7CCBCB"/>
<path fill-rule="evenodd" clip-rule="evenodd" d="M21.379 8.63324C21.3466 8.73315 21.2586 8.93769 21.1833 9.0879C21.1079 9.23833 21.0568 9.36115 21.0699 9.36115C21.1331 9.36115 21.5016 8.51536 21.4575 8.47158C21.4467 8.4608 21.4114 8.53355 21.379 8.63324ZM68.8394 8.72484C68.9107 9.0028 69.1897 9.66291 69.2219 9.63058C69.2313 9.62137 69.1753 9.47408 69.0977 9.30322C69.0201 9.13236 68.9314 8.8883 68.9004 8.76099C68.8695 8.63369 68.8268 8.51042 68.8059 8.4873C68.7847 8.46394 68.7998 8.57082 68.8394 8.72484ZM29.6831 13.5784C29.8485 13.8332 33.2698 19.0775 37.2861 25.2324C41.3023 31.3873 44.6888 36.5789 44.8116 36.7696L45.0351 37.1162L52.5501 25.8166C56.6833 19.6017 60.2757 14.2015 60.5333 13.8159L61.0015 13.1152H45.1919H29.3825L29.6831 13.5784ZM56.5238 15.5107C56.5238 15.5214 54.4284 18.6807 51.8674 22.5315C49.3065 26.3821 46.7322 30.2545 46.1472 31.1365C45.5622 32.0186 45.0699 32.7391 45.0535 32.7378C45.0272 32.7355 33.8568 15.6294 33.8175 15.5306C33.8087 15.5089 38.9139 15.4911 45.1626 15.4911C51.4113 15.4911 56.5238 15.4999 56.5238 15.5107ZM51.831 39.7373L51.6429 39.9394L51.8451 39.7515C52.0335 39.5768 52.0695 39.5355 52.0335 39.5355C52.0256 39.5355 51.9347 39.6262 51.831 39.7373ZM38.857 40.5007C38.857 40.5088 38.9268 40.5784 39.0118 40.6552L39.1666 40.7946L39.0267 40.6401C38.8964 40.4962 38.857 40.4639 38.857 40.5007ZM32.0449 42.1847L31.8809 42.3627L32.0595 42.199C32.2256 42.0466 32.26 42.0064 32.2236 42.0064C32.2157 42.0064 32.1354 42.0865 32.0449 42.1847ZM58.1429 42.1728C58.2318 42.2641 58.315 42.3389 58.3281 42.3389C58.3413 42.3389 58.2792 42.2641 58.1904 42.1728C58.1015 42.0811 58.0182 42.0064 58.0052 42.0064C57.9919 42.0064 58.054 42.0811 58.1429 42.1728ZM32.0476 46.2117C32.1365 46.3033 32.2197 46.3781 32.233 46.3781C32.2461 46.3781 32.184 46.3033 32.0953 46.2117C32.0064 46.1203 31.923 46.0454 31.9099 46.0454C31.8969 46.0454 31.9587 46.1203 32.0476 46.2117ZM58.1168 46.2474L57.9285 46.4493L58.131 46.2616C58.3191 46.0869 58.3553 46.0454 58.3191 46.0454C58.3114 46.0454 58.2203 46.1363 58.1168 46.2474ZM37.1146 64.9757L29.3006 76.9561L37.1979 76.9683C41.5415 76.9748 48.6488 76.9748 52.9922 76.9683L60.889 76.9561L52.9326 64.9964C48.5565 58.4185 44.9655 53.0272 44.9523 53.016C44.9392 53.0045 41.4123 58.3864 37.1146 64.9757ZM51.9824 67.8629C54.4277 71.5386 56.4286 74.5589 56.4286 74.5751C56.4286 74.591 51.3177 74.604 45.0713 74.604C38.8251 74.604 33.7142 74.591 33.7142 74.5751C33.7142 74.5517 39.3968 65.8206 41.0717 63.2709C41.312 62.9049 42.2853 61.4139 43.2348 59.9571L44.961 57.3086L46.2485 59.2443C46.9568 60.309 49.5369 64.1874 51.9824 67.8629ZM68.9152 80.8164C68.7701 81.1341 68.5885 81.7376 68.663 81.6554C68.6839 81.6321 68.7267 81.5088 68.7575 81.3815C68.7885 81.2542 68.8772 81.0104 68.9548 80.8395C69.0324 80.6687 69.0885 80.5214 69.0792 80.5119C69.0698 80.5027 68.9962 80.6397 68.9152 80.8164ZM21.0672 81.126C21.154 81.3155 21.2494 81.5239 21.2793 81.5892L21.3338 81.708L21.3059 81.5892C21.2717 81.4435 20.9661 80.7814 20.9333 80.7814C20.9202 80.7814 20.9803 80.9365 21.0672 81.126Z" fill="#9C5CAC"/>
</g>
<defs>
<clipPath id="clip0_5:696">
<rect width="90" height="90" fill="white"/>
</clipPath>
</defs>
</svg>
