<svg width="68" height="68" viewBox="0 0 68 68" fill="none" xmlns="http://www.w3.org/2000/svg">
<path fill-rule="evenodd" clip-rule="evenodd" d="M33.7585 68C32.8501 67.6359 32.2205 66.9583 31.6154 66.2118C23.7289 56.4839 15.8271 46.7684 7.93051 37.0485C6.3626 35.1188 6.42955 32.8705 8.10496 31.0411C10.8253 28.0709 13.5549 25.1093 16.2644 22.1294C17.4202 20.8583 18.834 20.2202 20.5459 20.2203C29.7968 20.221 39.0476 20.2209 48.2985 20.2205C50.0095 20.2203 51.4257 20.8547 52.5822 22.1269C55.2763 25.0909 57.9903 28.0369 60.6964 30.9898C62.428 32.8795 62.4942 35.1069 60.8739 37.1015C52.8801 46.942 44.8926 56.7869 36.8738 66.6071C36.408 67.1775 35.6883 67.5404 35.0865 67.9997C34.6439 68 34.2011 68 33.7585 68ZM8.87378 35.0473C16.4604 44.386 23.9371 53.5895 31.4138 62.793C31.4595 62.531 31.4128 62.3211 31.3437 62.1187C30.0892 58.4392 28.8313 54.7607 27.5761 51.0813C26.228 47.1299 24.8799 43.1789 23.5367 39.2262C23.2903 38.5012 23.5103 37.9318 24.0829 37.7439C24.6732 37.5498 25.1491 37.853 25.4184 38.5943C25.4487 38.6774 25.4829 38.759 25.5112 38.8426C28.2674 46.9342 31.0228 55.0262 33.7796 63.1174C33.9675 63.6684 34.1671 64.2155 34.3612 64.7647C34.4078 64.7627 34.4542 64.761 34.5008 64.7592C37.8705 54.8726 41.2407 44.9859 44.6285 35.0473C32.7054 35.0473 20.9021 35.0473 8.87378 35.0473ZM37.3121 62.7026C37.3562 62.7285 37.4002 62.7545 37.4444 62.7804C44.9186 53.5792 52.393 44.3779 59.8676 35.1767C59.8261 35.1193 59.7845 35.0621 59.7431 35.0046C59.5049 35.0046 59.2668 35.0046 59.0288 35.0046C55.1796 35.0046 51.3302 35.0154 47.4812 34.9925C46.9313 34.9892 46.6823 35.1431 46.4989 35.6863C44.0544 42.9246 41.5802 50.1531 39.1151 57.3847C38.5111 59.1564 37.9131 60.93 37.3121 62.7026ZM36.7945 22.2721C36.9119 22.4288 36.979 22.5363 37.0633 22.6283C40.126 25.972 43.1842 29.32 46.2685 32.6438C46.4713 32.8623 46.8748 32.9951 47.1861 32.9971C51.1234 33.0205 55.0609 33.0123 58.9983 33.0123C59.2079 33.0123 59.4174 33.0123 59.6269 33.0123C59.6487 32.9571 59.6705 32.9016 59.6922 32.8464C56.7496 29.6354 53.8072 26.4247 50.8125 23.1569C50.7146 23.4182 50.6574 23.5602 50.6078 23.7049C49.9927 25.5014 49.379 27.2984 48.7648 29.0951C48.7149 29.2414 48.6738 29.3916 48.6132 29.5333C48.3676 30.1057 47.8621 30.3474 47.3283 30.1537C46.8048 29.964 46.5563 29.4555 46.7547 28.8569C47.3519 27.0545 47.9725 25.2597 48.5812 23.4612C48.7062 23.0925 48.8194 22.7198 48.9623 22.2719C44.8726 22.2721 40.8702 22.2721 36.7945 22.2721ZM34.4232 22.7016C31.2659 26.1465 28.1846 29.5086 25.0244 32.9567C31.3488 32.9567 37.5201 32.9567 43.8236 32.9567C40.6484 29.4925 37.5611 26.1249 34.4232 22.7016ZM9.04893 32.9624C13.2522 32.9624 17.2835 32.9624 21.3978 32.9624C20.2804 29.6857 19.182 26.464 18.0489 23.141C15.0275 26.4382 12.0898 29.6438 9.04893 32.9624ZM23.1814 32.0154C26.1694 28.7554 29.1022 25.5555 32.1111 22.2726C27.9746 22.2726 23.9717 22.2726 19.8626 22.2726C20.9779 25.5464 22.0639 28.7345 23.1814 32.0154Z" fill="white"/>
<path fill-rule="evenodd" clip-rule="evenodd" d="M34.8213 0C35.3267 0.380777 35.4303 0.90005 35.4282 1.50699C35.4123 5.79312 35.4206 10.0794 35.4174 14.3657C35.4172 14.6075 35.419 14.8576 35.3613 15.0892C35.2383 15.5801 34.8937 15.8258 34.3895 15.8129C33.9136 15.8008 33.5955 15.5488 33.4836 15.0889C33.4273 14.8567 33.4283 14.6069 33.4281 14.3652C33.4251 10.0789 33.4335 5.79277 33.4175 1.50664C33.4152 0.899873 33.5172 0.380068 34.0243 0C34.2899 0 34.5556 0 34.8213 0Z" fill="white"/>
<path fill-rule="evenodd" clip-rule="evenodd" d="M24.628 16.8835C24.4808 16.7581 24.0905 16.5736 23.9341 16.269C22.5117 13.4987 21.1248 10.7102 19.7409 7.9204C19.4436 7.32107 19.6224 6.76727 20.1396 6.50373C20.6615 6.23808 21.2061 6.42191 21.5138 7.03222C22.9154 9.8133 24.3104 12.5974 25.6848 15.3919C26.0494 16.1338 25.6162 16.8644 24.628 16.8835Z" fill="white"/>
<path fill-rule="evenodd" clip-rule="evenodd" d="M49.3588 7.2435C49.1994 7.64854 49.1274 7.88108 49.0204 8.09626C47.6912 10.7658 46.359 13.4337 45.0224 16.0993C44.6524 16.8373 44.11 17.0737 43.5399 16.7672C42.9954 16.4744 42.8816 15.9282 43.2381 15.2134C44.5882 12.506 45.9444 9.80178 47.2966 7.09579C47.5499 6.58874 47.945 6.22514 48.5047 6.45201C48.8544 6.59352 49.0999 6.99254 49.3588 7.2435Z" fill="white"/>
</svg>
