<svg width="68" height="68" viewBox="0 0 68 68" fill="none" xmlns="http://www.w3.org/2000/svg">
<path fill-rule="evenodd" clip-rule="evenodd" d="M27.6618 65.8966C27.4177 65.4634 27.0564 65.0577 26.9491 64.5929C26.3182 61.8624 25.7475 59.1182 25.1531 56.3793C25.1191 56.223 25.0559 56.0729 24.993 55.8788C22.846 57.0058 20.7336 58.1147 18.6216 59.224C18.0518 59.5234 17.4783 59.8158 16.915 60.127C16.4222 60.3991 15.937 60.5221 15.4875 60.0749C15.0646 59.654 15.1643 59.1952 15.3958 58.7008C17.4738 54.2641 19.5394 49.8214 21.6085 45.3801C21.7049 45.1734 21.7987 44.9654 21.8245 44.9087C21.0918 43.4889 20.3892 42.1751 19.735 40.8379C19.4451 40.2454 19.0412 39.833 18.4452 39.5563C17.5229 39.1278 16.6138 38.6689 15.712 38.1985C14.209 37.4143 13.531 36.1582 13.6344 34.4712C13.6979 33.4339 13.8113 32.3951 13.7935 31.359C13.7847 30.8512 13.6159 30.2981 13.3644 29.8531C12.8647 28.9689 12.2504 28.1503 11.6961 27.2964C10.7608 25.8557 10.771 24.4098 11.7087 22.9736C12.2313 22.1733 12.7429 21.3645 13.3009 20.5893C13.7121 20.018 13.8785 19.4186 13.8168 18.7201C13.7307 17.7474 13.6885 16.7705 13.6322 15.7951C13.5365 14.1358 14.2037 12.8891 15.679 12.1105C16.597 11.626 17.5301 11.1692 18.4687 10.7265C19.0402 10.4571 19.4487 10.0683 19.7165 9.48686C20.1417 8.56324 20.6063 7.65708 21.0711 6.75226C21.817 5.29992 23.0073 4.56319 24.6483 4.6226C25.6866 4.66021 26.7257 4.71846 27.7599 4.81565C28.3956 4.87539 28.9448 4.74425 29.4635 4.37913C30.0579 3.96092 30.6557 3.54187 31.2836 3.17775C32.0139 2.75421 32.7782 2.38992 33.5279 2C33.944 2 34.3599 2 34.7759 2C36.2812 2.45183 37.4516 3.48229 38.7334 4.31472C39.3401 4.70847 39.9411 4.88471 40.6682 4.80616C41.6797 4.69682 42.6998 4.65039 43.7176 4.62227C45.3059 4.57816 46.4699 5.29776 47.2024 6.69734C47.6837 7.61681 48.1524 8.54426 48.587 9.48636C48.8553 10.0678 49.264 10.4566 49.8349 10.7263C50.7735 11.1699 51.7066 11.6263 52.6245 12.1108C54.1 12.8898 54.765 14.1383 54.6707 15.7966C54.6162 16.7512 54.5765 17.7075 54.4886 18.6594C54.42 19.4013 54.5928 20.0372 55.0359 20.6433C55.5993 21.4141 56.1093 22.2247 56.6261 23.0285C57.5252 24.4276 57.5306 25.8427 56.6381 27.2448C56.0802 28.121 55.4492 28.9536 54.9378 29.8551C54.6856 30.2992 54.5182 30.8534 54.5097 31.361C54.4924 32.3973 54.6081 33.4357 54.6695 34.4732C54.7695 36.1587 54.093 37.4168 52.5883 38.1993C51.6122 38.7069 50.6019 39.1519 49.646 39.6936C49.271 39.9058 48.9199 40.2571 48.7004 40.6292C47.9337 41.9304 47.2181 43.2626 46.5163 44.6004C46.4397 44.7462 46.5381 45.024 46.6238 45.2087C48.6771 49.6343 50.7397 54.0552 52.8001 58.4775C52.8878 58.6655 53.0481 58.8611 53.0371 59.045C53.0163 59.3928 52.999 59.8389 52.787 60.0495C52.5758 60.259 52.1296 60.2648 51.7816 60.2886C51.6202 60.2994 51.4448 60.146 51.2797 60.0593C48.8352 58.7742 46.3915 57.4878 43.9468 56.2027C43.7467 56.0977 43.5419 56.0015 43.2701 55.8667C42.9689 57.2446 42.6768 58.5768 42.3871 59.9095C42.0386 61.5125 41.7214 63.1227 41.3253 64.7135C41.2195 65.1384 40.8757 65.5038 40.641 65.8964C40.3916 65.8964 40.1419 65.8964 39.8923 65.8964C39.6473 65.5496 39.3451 65.2299 39.1667 64.8518C37.5936 61.5158 36.0427 58.1693 34.4834 54.8264C34.3933 54.6334 34.29 54.4465 34.1514 54.1759C34.0036 54.4643 33.9052 54.6425 33.8193 54.8264C32.2687 58.1501 30.7261 61.4777 29.1608 64.7944C28.9736 65.1913 28.6637 65.5305 28.4109 65.8964C28.1609 65.8966 27.9113 65.8966 27.6618 65.8966ZM26.3924 43.5643C26.3926 43.5668 26.3926 43.5688 26.3927 43.5711C26.7455 43.5507 27.1025 43.5575 27.4503 43.5051C28.6465 43.3247 29.7053 43.6234 30.683 44.323C31.4257 44.8547 32.2182 45.3172 32.9608 45.8493C33.7839 46.439 34.5589 46.4094 35.3724 45.8338C36.1522 45.2819 36.9718 44.7865 37.7547 44.2387C38.6477 43.6139 39.6151 43.3733 40.7006 43.4871C41.6509 43.5868 42.6089 43.6081 43.5623 43.6797C44.4826 43.7489 45.1124 43.3631 45.5076 42.534C45.9633 41.5784 46.4454 40.6354 46.9157 39.6868C47.3074 38.8963 47.8912 38.3038 48.6899 37.9162C49.6423 37.4538 50.5797 36.9603 51.5357 36.5048C52.394 36.0958 52.7533 35.4437 52.6751 34.4978C52.5859 33.4209 52.5496 32.3397 52.4819 31.261C52.4277 30.3971 52.6636 29.6202 53.1424 28.9063C53.6981 28.078 54.2237 27.2288 54.8045 26.4188C55.417 25.5646 55.4339 24.7571 54.8201 23.8956C54.2295 23.0668 53.6909 22.2013 53.1251 21.3547C52.6598 20.6582 52.431 19.8994 52.4817 19.058C52.547 17.9791 52.5982 16.8992 52.668 15.8206C52.7365 14.7618 52.4601 14.2556 51.5035 13.7738C50.5766 13.3068 49.6483 12.8419 48.7145 12.3885C47.8971 11.9918 47.2988 11.3874 46.9002 10.5736C46.4525 9.65993 45.9713 8.76211 45.5487 7.83732C45.1313 6.92417 44.4627 6.52826 43.4648 6.61613C42.4919 6.70201 41.5141 6.73063 40.541 6.81334C39.5933 6.89372 38.7274 6.69818 37.9356 6.16647C37.073 5.58733 36.1948 5.03132 35.3427 4.43737C34.5466 3.88237 33.7869 3.86173 32.9826 4.42639C32.1157 5.03482 31.22 5.60264 30.3365 6.1876C29.5617 6.70067 28.7121 6.89056 27.7868 6.8155C26.7718 6.73313 25.7535 6.69135 24.738 6.61497C23.8174 6.54574 23.1885 6.9275 22.7939 7.75943C22.3403 8.71584 21.8568 9.65827 21.3855 10.6062C20.9929 11.3959 20.4073 11.9883 19.6105 12.3771C18.6589 12.8414 17.7118 13.3148 16.7672 13.7931C15.8434 14.2606 15.5655 14.7713 15.6321 15.795C15.7008 16.8527 15.7489 17.912 15.8193 18.9697C15.8799 19.8781 15.6337 20.6909 15.1257 21.4396C14.5538 22.2818 14.0098 23.1432 13.431 23.9806C12.894 24.7573 12.8768 25.5069 13.4197 26.2892C13.9644 27.0742 14.4596 27.894 15.0122 28.6731C15.6279 29.542 15.904 30.4821 15.8143 31.5469C15.7323 32.5201 15.7001 33.4975 15.6351 34.4722C15.5643 35.5336 15.8389 36.0337 16.8 36.5175C17.7086 36.975 18.6176 37.4321 19.5348 37.8725C20.3942 38.2852 21.0182 38.9151 21.4304 39.7743C21.8883 40.7287 22.3714 41.671 22.8408 42.6201C23.2123 43.3711 23.8089 43.7341 24.6502 43.68C25.231 43.6425 25.8116 43.6029 26.3924 43.5643ZM34.6727 48.2741C33.4273 48.3883 32.481 47.9704 31.5928 47.3356C30.8839 46.8286 30.1733 46.3072 29.4032 45.9083C28.9155 45.6555 28.3182 45.5063 27.7688 45.5026C26.5873 45.4946 25.405 45.6506 24.223 45.6559C23.7888 45.6579 23.6094 45.786 23.4405 46.152C21.8395 49.6177 20.2216 53.0757 18.6101 56.5364C18.5451 56.6761 18.4951 56.8229 18.3976 57.0682C18.6865 56.9261 18.8691 56.8414 19.047 56.7475C21.0483 55.6936 23.0464 54.6334 25.0511 53.5854C25.9258 53.1281 26.5472 53.4212 26.7638 54.3802C26.9467 55.1897 27.112 56.0031 27.2882 56.8141C27.6332 58.4019 27.9804 59.9894 28.3267 61.5767C28.3713 61.5824 28.4161 61.5882 28.4607 61.594C30.5153 57.1882 32.5702 52.7823 34.6727 48.2741ZM49.8057 57.026C49.8237 56.9406 49.8502 56.8947 49.8372 56.8669C48.141 53.2163 46.4442 49.5659 44.7323 45.9226C44.6732 45.797 44.462 45.678 44.3146 45.669C42.9884 45.586 41.6605 45.5321 40.3335 45.462C39.4233 45.4141 37.7577 46.3963 37.3714 47.221C36.7292 48.593 36.0748 49.9596 35.4604 51.3439C35.3597 51.5708 35.3449 51.9189 35.4459 52.1396C36.8374 55.1769 38.2554 58.202 39.6706 61.2285C39.7312 61.3583 39.8266 61.4722 39.958 61.6739C40.4952 59.2021 41.0073 56.8507 41.5164 54.4984C41.7602 53.3726 42.3264 53.1095 43.3645 53.6483C43.917 53.9352 44.4677 54.226 45.0189 54.515C46.611 55.3499 48.2024 56.185 49.8057 57.026Z" fill="white"/>
<path fill-rule="evenodd" clip-rule="evenodd" d="M34.1838 39.8286C26.0419 39.8321 19.4456 33.2552 19.4482 25.1363C19.4509 17.0292 26.0546 10.4663 34.2101 10.4658C42.2711 10.4655 48.87 17.1048 48.848 25.1937C48.826 33.2601 42.248 39.825 34.1838 39.8286ZM34.1271 12.4645C27.1726 12.4534 21.4712 18.1384 21.4458 25.1097C21.4201 32.0986 27.107 37.8115 34.1104 37.8323C41.122 37.8531 46.8312 32.1877 46.852 25.1887C46.8728 18.1595 41.1889 12.4758 34.1271 12.4645Z" fill="white"/>
<path fill-rule="evenodd" clip-rule="evenodd" d="M28.3372 35.0566C27.5889 35.0685 27.1193 34.5032 27.2431 33.8259C27.5645 32.069 27.8875 30.312 28.2573 28.5651C28.3816 27.9781 28.2904 27.5878 27.8171 27.1711C26.5227 26.0307 25.2912 24.819 24.0254 23.6455C23.6643 23.3107 23.4193 22.9438 23.5862 22.4403C23.7621 21.9106 24.2001 21.7712 24.7109 21.7118C26.4859 21.5052 28.2573 21.2677 30.0323 21.0617C30.4452 21.0138 30.676 20.8411 30.8522 20.4516C31.5882 18.8249 32.3708 17.2193 33.1192 15.598C33.3347 15.1312 33.607 14.7533 34.163 14.7596C34.7192 14.7659 34.9793 15.157 35.1928 15.6203C35.9315 17.2231 36.7054 18.8097 37.4311 20.4183C37.6152 20.8266 37.8498 21.0165 38.2937 21.0667C40.0484 21.2653 41.7985 21.5047 43.5527 21.7081C44.0579 21.7668 44.5076 21.8802 44.702 22.4047C44.9105 22.9672 44.601 23.3478 44.2142 23.7068C42.919 24.9097 41.6452 26.136 40.334 27.3206C39.9926 27.6291 39.9229 27.9129 40.0105 28.3439C40.3696 30.1144 40.6871 31.8934 41.0378 33.6656C41.1305 34.1338 41.087 34.5362 40.6939 34.8431C40.2676 35.1761 39.8462 35.0622 39.417 34.8241C37.8552 33.9569 36.2782 33.117 34.7308 32.2249C34.292 31.972 33.9674 32.0039 33.5484 32.2428C32.0328 33.1068 30.4984 33.9381 28.9674 34.7746C28.7339 34.9025 28.4803 34.9933 28.3372 35.0566ZM38.6671 32.1273C38.6365 31.8432 38.6307 31.6788 38.6001 31.519C38.3767 30.3576 38.1685 29.193 37.9146 28.0383C37.7605 27.3377 37.9041 26.8025 38.4737 26.3286C39.1592 25.7581 39.7848 25.1157 40.4363 24.5048C40.7737 24.1884 41.1113 23.8722 41.5397 23.4708C40.0521 23.2864 38.7164 23.1009 37.3759 22.9631C36.6912 22.8927 36.2246 22.6302 35.9522 21.9607C35.6087 21.1166 35.186 20.3045 34.795 19.4797C34.5972 19.0625 34.394 18.6476 34.1435 18.1286C33.4913 19.511 32.8769 20.7548 32.3179 22.0231C32.0593 22.6101 31.6575 22.8933 31.0418 22.9454C30.587 22.9839 30.1335 23.0421 29.6807 23.1004C28.7509 23.2198 27.8219 23.3453 26.7771 23.4836C27.9086 24.5445 28.9283 25.5181 29.9689 26.4682C30.3789 26.8425 30.5377 27.2585 30.4174 27.802C30.2876 28.3892 30.1829 28.9821 30.0734 29.5737C29.9225 30.388 29.7775 31.2033 29.6073 32.1434C30.9499 31.4052 32.1583 30.7648 33.3412 30.0803C33.909 29.7516 34.4066 29.7565 34.9721 30.0838C36.1547 30.7676 37.3619 31.4087 38.6671 32.1273Z" fill="white"/>
</svg>
